<svg id="svg" version="1.1" xmlns="http://www.w3.org/2000/svg" xmlns:xlink="http://www.w3.org/1999/xlink" width="400" height="225" viewBox="0, 0, 400,225"><g id="svgg"><path id="path0" d="M312.099 20.998 C 309.423 21.294,305.800 21.316,301.632 21.063 C 297.830 20.832,298.191 20.543,295.774 25.774 C 295.374 26.640,294.593 28.312,294.038 29.488 C 293.483 30.664,292.749 32.234,292.405 32.977 C 291.307 35.351,289.914 38.306,288.638 40.968 C 287.955 42.392,287.117 44.164,286.775 44.907 C 283.816 51.339,280.699 57.589,280.092 58.311 C 279.135 59.448,278.159 58.655,276.660 55.520 C 275.484 53.062,273.945 49.720,273.945 49.625 C 273.945 49.583,273.531 48.656,273.024 47.565 C 272.518 46.475,271.910 45.152,271.674 44.626 C 270.937 42.986,270.408 41.832,269.345 39.540 C 268.780 38.322,268.317 37.289,268.317 37.246 C 268.317 37.173,267.587 35.583,265.708 31.561 C 265.286 30.659,264.941 29.884,264.941 29.839 C 264.941 29.734,263.410 26.427,261.993 23.471 C 260.642 20.652,261.169 20.824,254.498 21.029 C 241.274 21.437,241.352 21.427,241.633 22.630 C 241.692 22.882,241.840 26.276,241.962 30.171 C 242.809 57.236,242.810 57.616,242.110 74.733 C 241.462 90.552,241.446 91.262,241.730 91.793 L 241.997 92.290 251.162 92.287 C 256.202 92.285,260.464 92.196,260.632 92.090 C 261.160 91.755,261.186 90.140,260.896 75.303 C 260.533 56.695,260.493 56.893,263.323 63.365 C 263.810 64.479,264.437 65.898,264.717 66.517 C 265.672 68.634,266.026 69.447,267.410 72.707 C 268.172 74.502,268.885 76.173,268.995 76.421 C 269.105 76.669,269.664 77.985,270.237 79.347 C 270.811 80.709,271.434 82.178,271.622 82.611 C 271.995 83.472,272.089 83.678,274.286 88.464 C 275.110 90.259,275.834 91.887,275.894 92.082 C 276.368 93.624,281.193 93.920,281.983 92.456 C 282.413 91.658,282.444 91.583,284.612 86.213 C 285.437 84.170,286.205 82.296,286.321 82.048 C 286.436 81.801,286.794 80.940,287.117 80.135 C 287.440 79.330,287.850 78.353,288.028 77.963 C 288.206 77.572,288.351 77.183,288.351 77.096 C 288.351 77.010,288.497 76.620,288.675 76.230 C 288.853 75.840,289.262 74.862,289.585 74.057 C 289.908 73.253,290.266 72.392,290.380 72.144 C 290.495 71.896,291.039 70.580,291.589 69.218 C 293.063 65.572,293.303 64.987,293.525 64.491 C 293.636 64.243,294.074 63.230,294.499 62.240 C 297.192 55.965,297.273 56.204,296.920 69.375 C 296.349 90.687,296.346 91.079,296.762 91.713 L 297.140 92.290 306.686 92.290 C 318.419 92.290,317.341 92.849,317.071 86.908 C 316.984 84.978,316.816 81.322,316.699 78.784 C 316.321 70.596,316.193 50.562,316.465 42.093 C 316.891 28.823,316.992 21.525,316.754 21.185 C 316.460 20.763,314.820 20.697,312.099 20.998 M172.562 21.380 L 168.310 21.526 167.782 22.140 C 167.284 22.718,167.260 22.887,167.360 25.052 C 168.258 44.420,168.260 68.059,167.365 88.937 C 167.201 92.767,165.509 92.460,186.980 92.493 C 203.343 92.518,207.255 92.223,210.805 90.696 C 211.052 90.590,211.913 90.259,212.718 89.962 C 217.765 88.097,222.627 84.125,226.263 78.897 C 227.181 77.577,229.600 73.498,229.600 73.270 C 229.600 73.183,229.744 72.793,229.920 72.403 C 230.748 70.563,231.143 69.542,231.294 68.855 C 231.385 68.444,231.540 67.952,231.640 67.762 C 233.156 64.879,233.530 53.666,232.286 48.396 C 229.019 34.562,221.092 26.037,208.666 22.995 C 202.277 21.431,188.763 20.827,172.562 21.380 M329.769 21.595 C 326.222 21.857,326.305 21.640,326.945 29.038 C 327.809 39.022,328.073 58.035,327.663 80.846 L 327.471 91.574 328.034 91.942 C 328.688 92.371,347.306 92.870,348.059 92.479 C 348.518 92.241,348.605 89.791,348.237 87.451 C 347.913 85.388,347.499 78.123,347.658 77.278 C 347.962 75.657,349.583 75.482,358.582 76.094 C 365.046 76.534,370.197 75.649,374.524 73.356 C 380.615 70.128,385.099 63.858,386.631 56.428 C 387.516 52.133,387.619 44.914,386.838 41.868 C 383.924 30.498,377.270 24.295,365.447 21.925 C 363.282 21.491,334.744 21.227,329.769 21.595 M198.537 36.941 C 207.962 38.312,213.932 45.945,213.920 56.612 C 213.909 67.153,209.298 73.949,200.450 76.469 C 197.003 77.450,188.757 76.875,187.568 75.571 C 186.983 74.929,186.705 62.153,186.962 47.670 L 187.125 38.407 187.666 37.906 C 188.962 36.705,193.898 36.266,198.537 36.941 M358.132 37.365 C 362.974 38.092,366.049 40.687,366.934 44.795 C 368.702 53.003,365.871 58.880,359.558 60.108 C 357.796 60.450,348.888 60.291,347.866 59.898 C 346.951 59.547,346.879 58.669,346.881 47.833 C 346.882 38.562,346.921 38.106,347.753 37.765 C 349.011 37.249,355.655 36.993,358.132 37.365 " stroke="none" fill="#1c3c7c" fill-rule="evenodd"></path><path id="path1" d="M179.134 21.102 C 180.410 21.142,182.436 21.142,183.636 21.102 C 184.837 21.061,183.793 21.029,181.317 21.029 C 178.841 21.029,177.859 21.062,179.134 21.102 M249.578 21.097 C 249.980 21.147,250.639 21.147,251.041 21.097 C 251.443 21.047,251.114 21.006,250.310 21.006 C 249.505 21.006,249.176 21.047,249.578 21.097 M303.151 21.093 C 303.430 21.147,303.886 21.147,304.164 21.093 C 304.443 21.039,304.215 20.995,303.658 20.995 C 303.101 20.995,302.873 21.039,303.151 21.093 M307.259 21.159 L 304.671 21.295 307.034 21.326 C 308.334 21.344,309.803 21.275,310.298 21.172 C 311.350 20.955,311.186 20.954,307.259 21.159 M172.932 21.326 C 173.644 21.370,174.809 21.370,175.521 21.326 C 176.232 21.281,175.650 21.244,174.226 21.244 C 172.802 21.244,172.220 21.281,172.932 21.326 M188.351 21.327 C 189.744 21.367,192.023 21.367,193.416 21.327 C 194.809 21.288,193.669 21.255,190.884 21.255 C 188.098 21.255,186.958 21.288,188.351 21.327 M244.063 21.326 C 244.899 21.369,246.266 21.369,247.102 21.326 C 247.938 21.283,247.254 21.247,245.582 21.247 C 243.911 21.247,243.227 21.283,244.063 21.326 M340.855 21.328 C 343.301 21.364,347.302 21.364,349.747 21.328 C 352.192 21.291,350.191 21.262,345.301 21.262 C 340.411 21.262,338.410 21.291,340.855 21.328 M330.726 21.540 C 330.943 21.596,331.297 21.596,331.514 21.540 C 331.730 21.483,331.553 21.437,331.120 21.437 C 330.687 21.437,330.509 21.483,330.726 21.540 M317.023 23.973 C 317.023 25.335,317.060 25.863,317.105 25.147 C 317.150 24.430,317.150 23.316,317.104 22.670 C 317.059 22.025,317.022 22.611,317.023 23.973 M241.600 23.973 C 241.602 24.716,241.644 24.993,241.694 24.588 C 241.744 24.183,241.743 23.576,241.692 23.237 C 241.640 22.899,241.599 23.230,241.600 23.973 M167.330 26.449 C 167.331 27.687,167.369 28.165,167.414 27.511 C 167.460 26.857,167.460 25.844,167.413 25.260 C 167.367 24.676,167.330 25.211,167.330 26.449 M241.831 27.912 C 241.831 28.841,241.871 29.221,241.920 28.756 C 241.968 28.292,241.968 27.532,241.920 27.068 C 241.871 26.604,241.831 26.984,241.831 27.912 M378.841 28.025 C 379.261 28.458,379.655 28.813,379.717 28.813 C 379.779 28.813,379.486 28.458,379.066 28.025 C 378.646 27.591,378.252 27.237,378.190 27.237 C 378.128 27.237,378.421 27.591,378.841 28.025 M326.904 29.938 C 326.904 30.495,326.948 30.723,327.002 30.445 C 327.056 30.166,327.056 29.710,327.002 29.432 C 326.948 29.153,326.904 29.381,326.904 29.938 M316.799 32.752 C 316.800 34.237,316.836 34.816,316.880 34.037 C 316.925 33.259,316.924 32.043,316.880 31.336 C 316.835 30.629,316.799 31.266,316.799 32.752 M327.136 32.864 C 327.136 33.545,327.178 33.824,327.229 33.483 C 327.281 33.143,327.281 32.586,327.229 32.245 C 327.178 31.905,327.136 32.183,327.136 32.864 M167.553 35.003 C 167.552 36.117,167.591 36.601,167.638 36.079 C 167.685 35.556,167.686 34.645,167.639 34.053 C 167.592 33.461,167.554 33.889,167.553 35.003 M242.060 35.340 C 242.060 36.393,242.098 36.823,242.146 36.297 C 242.193 35.771,242.193 34.910,242.146 34.384 C 242.098 33.858,242.060 34.288,242.060 35.340 M194.316 36.621 C 194.533 36.678,194.887 36.678,195.104 36.621 C 195.321 36.565,195.144 36.518,194.710 36.518 C 194.277 36.518,194.100 36.565,194.316 36.621 M327.350 37.479 C 327.352 37.974,327.399 38.150,327.452 37.870 C 327.506 37.590,327.504 37.185,327.448 36.970 C 327.392 36.755,327.347 36.984,327.350 37.479 M353.020 37.308 C 353.861 37.352,355.178 37.351,355.946 37.308 C 356.715 37.264,356.027 37.228,354.418 37.229 C 352.808 37.229,352.179 37.265,353.020 37.308 M316.566 39.055 C 316.566 40.045,316.606 40.422,316.654 39.893 C 316.701 39.363,316.700 38.553,316.652 38.092 C 316.604 37.631,316.565 38.064,316.566 39.055 M349.074 37.526 C 349.354 37.579,349.759 37.577,349.974 37.521 C 350.190 37.465,349.961 37.421,349.465 37.423 C 348.970 37.426,348.794 37.472,349.074 37.526 M187.137 40.405 C 187.136 41.519,187.174 42.004,187.221 41.481 C 187.269 40.959,187.269 40.047,187.223 39.455 C 187.176 38.863,187.137 39.291,187.137 40.405 M167.776 40.630 C 167.776 41.621,167.816 41.998,167.863 41.468 C 167.911 40.939,167.910 40.129,167.862 39.668 C 167.814 39.207,167.775 39.640,167.776 40.630 M327.586 44.119 C 327.586 44.800,327.628 45.079,327.680 44.738 C 327.731 44.398,327.731 43.841,327.680 43.500 C 327.628 43.160,327.586 43.438,327.586 44.119 M242.282 44.795 C 242.282 45.723,242.321 46.103,242.370 45.639 C 242.419 45.174,242.419 44.415,242.370 43.950 C 242.321 43.486,242.282 43.866,242.282 44.795 M316.333 46.708 C 316.334 47.451,316.376 47.728,316.427 47.323 C 316.477 46.918,316.476 46.311,316.424 45.972 C 316.373 45.634,316.332 45.965,316.333 46.708 M168.002 47.496 C 168.002 48.548,168.041 48.979,168.088 48.452 C 168.136 47.926,168.136 47.065,168.088 46.539 C 168.041 46.013,168.002 46.443,168.002 47.496 M367.192 46.933 C 367.195 47.428,367.241 47.604,367.295 47.324 C 367.349 47.044,367.347 46.639,367.290 46.424 C 367.234 46.209,367.190 46.438,367.192 46.933 M327.848 58.863 C 327.848 65.053,327.877 67.553,327.912 64.419 C 327.947 61.284,327.947 56.219,327.912 53.164 C 327.877 50.108,327.848 52.673,327.848 58.863 M387.451 48.509 C 387.454 49.004,387.500 49.180,387.554 48.900 C 387.608 48.620,387.605 48.215,387.549 48.000 C 387.493 47.784,387.449 48.014,387.451 48.509 M186.921 52.110 C 186.921 53.844,186.956 54.523,186.999 53.620 C 187.042 52.717,187.042 51.299,186.998 50.468 C 186.955 49.638,186.920 50.377,186.921 52.110 M242.532 56.612 C 242.532 60.822,242.563 62.512,242.600 60.368 C 242.637 58.225,242.637 54.781,242.599 52.715 C 242.562 50.649,242.532 52.403,242.532 56.612 M367.197 51.322 C 367.197 51.880,367.241 52.107,367.294 51.829 C 367.348 51.550,367.348 51.095,367.294 50.816 C 367.241 50.537,367.197 50.765,367.197 51.322 M233.049 53.573 C 233.049 54.378,233.090 54.707,233.140 54.305 C 233.190 53.903,233.190 53.244,233.140 52.842 C 233.090 52.440,233.049 52.769,233.049 53.573 M213.925 56.500 C 213.925 57.676,213.963 58.157,214.009 57.569 C 214.055 56.981,214.055 56.019,214.009 55.431 C 213.963 54.842,213.925 55.324,213.925 56.500 M346.944 56.050 C 346.944 56.730,346.986 57.009,347.038 56.669 C 347.090 56.328,347.090 55.771,347.038 55.431 C 346.986 55.090,346.944 55.369,346.944 56.050 M233.047 59.539 C 233.048 60.281,233.090 60.558,233.140 60.154 C 233.190 59.749,233.189 59.141,233.138 58.803 C 233.086 58.465,233.045 58.796,233.047 59.539 M186.921 61.564 C 186.921 63.298,186.956 63.977,186.999 63.074 C 187.042 62.171,187.042 60.753,186.998 59.923 C 186.955 59.092,186.920 59.831,186.921 61.564 M296.972 64.378 C 296.972 65.059,297.015 65.338,297.066 64.997 C 297.118 64.657,297.118 64.100,297.066 63.759 C 297.015 63.419,296.972 63.697,296.972 64.378 M260.750 66.517 C 260.750 68.002,260.787 68.581,260.831 67.802 C 260.875 67.023,260.875 65.808,260.830 65.101 C 260.786 64.394,260.750 65.031,260.750 66.517 M167.999 67.304 C 167.999 68.233,168.039 68.613,168.087 68.149 C 168.136 67.684,168.136 66.925,168.087 66.460 C 168.039 65.996,167.999 66.376,167.999 67.304 M316.333 67.192 C 316.334 67.935,316.376 68.211,316.427 67.807 C 316.477 67.402,316.476 66.795,316.424 66.456 C 316.373 66.118,316.332 66.449,316.333 67.192 M242.273 67.304 C 242.273 67.985,242.316 68.264,242.367 67.923 C 242.419 67.583,242.419 67.026,242.367 66.685 C 242.316 66.345,242.273 66.624,242.273 67.304 M379.847 69.387 L 378.503 70.793 379.910 69.450 C 381.217 68.202,381.420 67.980,381.254 67.980 C 381.219 67.980,380.586 68.613,379.847 69.387 M187.093 73.087 C 187.073 74.225,187.133 75.204,187.226 75.261 C 187.319 75.319,187.367 74.692,187.332 73.868 C 187.224 71.257,187.130 70.950,187.093 73.087 M296.752 73.607 C 296.752 74.412,296.793 74.741,296.843 74.339 C 296.893 73.936,296.893 73.278,296.843 72.876 C 296.793 72.473,296.752 72.802,296.752 73.607 M167.776 74.170 C 167.776 75.160,167.816 75.538,167.863 75.008 C 167.911 74.479,167.910 73.668,167.862 73.207 C 167.814 72.746,167.775 73.180,167.776 74.170 M242.042 73.607 C 242.042 74.164,242.086 74.392,242.140 74.114 C 242.193 73.835,242.193 73.379,242.140 73.101 C 242.086 72.822,242.042 73.050,242.042 73.607 M316.561 74.282 C 316.561 75.087,316.601 75.416,316.651 75.014 C 316.701 74.612,316.701 73.953,316.651 73.551 C 316.601 73.149,316.561 73.478,316.561 74.282 M327.607 78.447 C 327.607 80.180,327.643 80.859,327.686 79.956 C 327.728 79.053,327.728 77.635,327.685 76.805 C 327.642 75.975,327.607 76.714,327.607 78.447 M350.200 75.792 C 350.480 75.846,350.885 75.844,351.100 75.788 C 351.315 75.731,351.086 75.687,350.591 75.690 C 350.096 75.692,349.920 75.738,350.200 75.792 M354.469 76.021 C 354.868 76.070,355.577 76.071,356.045 76.022 C 356.512 75.974,356.185 75.933,355.318 75.932 C 354.451 75.931,354.069 75.971,354.469 76.021 M358.641 76.245 C 358.983 76.297,359.490 76.295,359.767 76.242 C 360.044 76.188,359.764 76.146,359.145 76.148 C 358.526 76.149,358.299 76.193,358.641 76.245 M363.593 76.245 C 363.936 76.297,364.442 76.295,364.719 76.242 C 364.996 76.188,364.716 76.146,364.097 76.148 C 363.478 76.149,363.251 76.193,363.593 76.245 M191.840 76.914 C 192.057 76.970,192.411 76.970,192.628 76.914 C 192.845 76.857,192.667 76.811,192.234 76.811 C 191.801 76.811,191.624 76.857,191.840 76.914 M347.626 78.672 C 347.627 79.539,347.668 79.865,347.716 79.398 C 347.765 78.931,347.764 78.222,347.715 77.823 C 347.665 77.423,347.625 77.805,347.626 78.672 M260.965 79.010 C 260.965 79.938,261.005 80.318,261.053 79.854 C 261.102 79.389,261.102 78.630,261.053 78.165 C 261.005 77.701,260.965 78.081,260.965 79.010 M316.797 79.685 C 316.797 80.985,316.834 81.517,316.880 80.867 C 316.925 80.217,316.925 79.153,316.880 78.503 C 316.834 77.853,316.797 78.385,316.797 79.685 M241.833 79.347 C 241.834 80.338,241.873 80.715,241.921 80.185 C 241.968 79.656,241.968 78.846,241.919 78.385 C 241.871 77.924,241.832 78.357,241.833 79.347 M167.550 79.572 C 167.551 80.563,167.591 80.940,167.638 80.410 C 167.686 79.881,167.685 79.071,167.637 78.610 C 167.589 78.149,167.550 78.582,167.550 79.572 M296.535 80.473 C 296.534 81.587,296.572 82.071,296.619 81.549 C 296.666 81.026,296.667 80.115,296.620 79.523 C 296.574 78.931,296.535 79.358,296.535 80.473 M241.609 84.187 C 241.609 85.239,241.648 85.670,241.695 85.144 C 241.743 84.617,241.743 83.756,241.695 83.230 C 241.648 82.704,241.609 83.134,241.609 84.187 M316.995 85.200 C 316.998 85.695,317.044 85.871,317.098 85.591 C 317.152 85.311,317.150 84.906,317.093 84.691 C 317.037 84.475,316.993 84.705,316.995 85.200 M348.054 85.988 C 348.054 86.421,348.101 86.598,348.157 86.382 C 348.214 86.165,348.214 85.810,348.157 85.594 C 348.101 85.377,348.054 85.554,348.054 85.988 M167.329 87.788 C 167.329 88.965,167.367 89.446,167.414 88.858 C 167.460 88.270,167.460 87.307,167.414 86.719 C 167.367 86.131,167.329 86.612,167.329 87.788 M296.316 88.576 C 296.316 90.062,296.352 90.640,296.396 89.862 C 296.441 89.083,296.440 87.868,296.396 87.161 C 296.351 86.454,296.315 87.091,296.316 88.576 M261.186 89.364 C 261.186 90.169,261.227 90.498,261.277 90.096 C 261.327 89.693,261.327 89.035,261.277 88.633 C 261.227 88.230,261.186 88.559,261.186 89.364 M169.224 92.455 C 169.753 92.503,170.564 92.502,171.025 92.454 C 171.486 92.406,171.052 92.367,170.062 92.368 C 169.071 92.368,168.694 92.408,169.224 92.455 M246.764 92.459 C 249.209 92.495,253.210 92.495,255.656 92.459 C 258.101 92.423,256.100 92.393,251.210 92.393 C 246.320 92.393,244.319 92.423,246.764 92.459 M302.138 92.459 C 304.707 92.495,308.911 92.495,311.480 92.459 C 314.049 92.423,311.947 92.393,306.809 92.393 C 301.671 92.393,299.569 92.423,302.138 92.459 M329.600 92.456 C 330.189 92.502,331.151 92.502,331.739 92.456 C 332.327 92.409,331.846 92.372,330.670 92.372 C 329.494 92.372,329.012 92.409,329.600 92.456 M183.383 92.684 C 186.377 92.720,191.340 92.720,194.413 92.684 C 197.486 92.649,195.037 92.620,188.970 92.620 C 182.904 92.620,180.390 92.649,183.383 92.684 M340.303 92.683 C 341.331 92.725,342.951 92.725,343.905 92.683 C 344.858 92.641,344.018 92.606,342.037 92.607 C 340.056 92.607,339.276 92.641,340.303 92.683 M126.055 133.288 C 123.765 133.374,120.827 133.557,119.527 133.695 C 115.029 134.171,107.207 134.336,94.941 134.215 C 83.584 134.103,82.611 134.122,82.478 134.468 C 82.334 134.843,82.876 146.466,83.324 152.617 C 83.630 156.818,83.682 179.088,83.420 193.172 L 83.215 204.128 83.955 204.577 C 85.431 205.475,102.327 205.843,103.608 205.005 L 104.216 204.607 104.089 202.191 C 104.019 200.862,103.869 198.509,103.754 196.961 C 102.829 184.431,102.980 179.158,104.293 178.186 C 105.356 177.399,123.270 177.500,128.241 178.320 C 131.153 178.801,131.285 178.391,131.186 169.162 C 131.121 163.100,131.068 162.282,130.667 161.171 L 130.219 159.932 126.730 159.979 C 124.811 160.005,121.519 160.140,119.415 160.279 C 112.428 160.742,106.042 160.687,105.155 160.158 C 102.700 158.691,102.384 152.096,104.670 150.028 C 105.503 149.275,120.536 149.370,124.158 150.152 C 124.662 150.261,127.285 150.420,129.988 150.507 L 134.902 150.663 134.740 148.667 C 134.651 147.569,134.482 146.211,134.365 145.648 C 133.852 143.188,133.717 141.718,133.712 138.548 C 133.703 133.034,133.659 133.003,126.055 133.288 M161.846 154.340 C 151.235 155.203,144.109 160.240,140.240 169.612 C 134.961 182.398,140.383 197.757,152.167 203.397 C 157.379 205.891,167.825 206.655,171.863 204.836 C 172.110 204.725,172.725 204.529,173.229 204.401 C 178.458 203.076,184.626 197.382,187.143 191.559 C 189.883 185.219,189.958 173.938,187.293 168.865 C 187.184 168.657,186.820 167.929,186.484 167.248 C 183.898 161.999,178.219 157.170,172.792 155.605 C 169.679 154.708,164.575 154.118,161.846 154.340 M268.542 154.883 C 264.468 155.233,261.729 156.522,255.937 160.811 C 253.494 162.621,253.618 162.730,253.257 158.466 C 252.911 154.383,253.338 154.505,246.145 156.430 C 245.155 156.695,242.825 157.061,240.968 157.243 C 235.842 157.746,234.778 158.225,235.227 159.826 C 235.315 160.138,235.459 161.354,235.546 162.527 C 235.633 163.700,235.851 166.221,236.029 168.128 C 236.277 170.777,236.353 175.474,236.353 187.999 L 236.353 204.401 236.972 204.669 C 237.834 205.041,251.894 205.199,253.067 204.848 L 253.911 204.596 253.911 189.853 C 253.911 175.331,253.918 175.095,254.383 174.184 C 256.416 170.200,262.972 168.379,265.623 171.063 C 267.558 173.022,267.688 174.297,267.602 190.508 C 267.531 203.846,267.541 204.209,267.966 204.520 C 268.602 204.985,284.228 204.994,284.863 204.529 C 285.266 204.234,285.282 203.878,285.187 197.158 C 284.896 176.524,285.050 174.829,287.440 172.420 C 290.963 168.870,295.364 168.752,297.644 172.146 C 298.896 174.009,299.350 185.129,298.688 197.684 C 298.274 205.514,297.714 205.063,307.848 205.064 C 314.951 205.065,315.329 205.044,315.872 204.617 L 316.442 204.168 316.392 184.189 C 316.337 162.108,316.455 164.068,315.001 161.171 C 314.497 160.165,312.114 157.775,311.086 157.243 C 308.881 156.101,308.116 155.796,306.331 155.346 C 301.825 154.211,296.883 154.768,292.628 156.890 C 289.338 158.531,287.913 159.564,285.887 161.774 C 284.302 163.504,284.491 163.512,283.598 161.677 C 282.498 159.416,280.859 157.816,278.068 156.279 C 277.104 155.748,274.864 155.099,273.571 154.977 C 270.963 154.731,270.426 154.720,268.542 154.883 M210.196 155.214 C 210.078 155.332,206.686 155.980,203.714 156.452 C 202.909 156.580,201.795 156.781,201.238 156.900 C 200.681 157.019,199.212 157.223,197.974 157.355 C 194.208 157.755,194.322 157.504,195.469 162.887 C 196.744 168.868,197.031 174.492,196.861 190.096 C 196.700 204.898,196.647 204.240,198.040 204.715 C 199.562 205.233,213.315 205.233,214.318 204.715 L 214.995 204.364 214.873 201.619 C 214.492 193.054,214.483 179.740,214.858 178.503 C 215.765 175.505,217.730 174.765,224.115 175.015 C 227.424 175.144,228.072 175.114,228.674 174.803 C 229.497 174.377,229.453 174.718,229.395 169.162 C 229.370 166.809,229.500 163.167,229.683 161.067 C 230.047 156.898,230.003 156.628,228.896 156.242 C 226.242 155.317,220.080 157.207,214.805 160.565 C 213.255 161.551,213.039 161.318,212.704 158.295 C 212.397 155.515,212.192 155.093,211.153 155.093 C 210.693 155.093,210.262 155.147,210.196 155.214 M167.679 170.632 C 169.299 171.496,171.038 173.294,171.746 174.837 C 172.018 175.430,172.358 176.158,172.502 176.455 C 172.661 176.784,172.763 178.201,172.763 180.079 C 172.763 181.957,172.661 183.373,172.502 183.703 C 172.358 184.000,172.010 184.745,171.728 185.359 C 169.137 190.993,161.100 192.023,157.278 187.213 C 150.573 178.773,158.686 165.839,167.679 170.632 " stroke="none" fill="#7c7c7c" fill-rule="evenodd"></path><path id="path2" d="M46.490 42.344 C 42.959 42.858,40.687 43.969,35.574 47.680 C 32.470 49.934,32.522 49.958,32.367 46.194 C 32.196 42.043,32.030 41.956,26.899 43.327 C 25.058 43.819,22.512 44.281,20.034 44.572 C 13.961 45.285,13.881 45.338,14.217 48.412 C 15.155 56.999,15.146 56.778,15.247 74.561 L 15.346 92.059 16.283 92.315 C 18.010 92.786,31.740 92.714,32.480 92.229 L 33.089 91.830 33.089 76.900 L 33.089 61.970 33.736 61.077 C 36.645 57.061,42.574 56.010,44.926 59.094 C 46.400 61.026,46.433 61.403,46.480 77.209 C 46.529 93.797,46.436 91.945,47.231 92.274 C 48.477 92.790,63.667 92.502,64.067 91.955 C 64.348 91.570,64.374 89.720,64.249 78.787 C 64.078 63.858,64.144 62.890,65.467 61.002 C 69.399 55.387,76.533 56.149,77.396 62.275 C 77.820 65.281,77.936 74.501,77.653 82.620 C 77.351 91.261,77.409 91.786,78.717 92.330 C 79.870 92.809,94.080 92.722,94.829 92.231 C 95.743 91.632,95.760 91.341,95.466 81.076 C 95.251 73.566,95.252 69.678,95.469 62.834 C 95.725 54.760,95.716 54.010,95.350 52.379 C 92.673 40.460,75.594 38.429,65.134 48.787 C 63.149 50.753,63.427 50.739,62.553 48.909 C 60.208 43.994,53.627 41.304,46.490 42.344 M123.241 42.440 C 110.374 44.135,102.320 55.764,103.557 70.860 C 105.160 90.421,125.866 100.691,137.973 87.931 C 139.268 86.566,139.570 86.859,139.990 89.878 C 140.120 90.809,140.346 91.834,140.492 92.155 L 140.759 92.741 145.393 92.727 C 152.971 92.706,156.144 92.465,156.738 91.867 C 157.307 91.295,157.363 86.089,156.880 78.608 C 156.169 67.596,156.411 58.945,157.676 50.089 C 157.959 48.110,158.144 46.370,158.087 46.222 C 157.862 45.636,150.155 43.823,145.227 43.197 C 142.640 42.868,142.555 42.929,141.706 45.745 C 140.958 48.222,140.957 48.222,139.398 46.681 C 135.394 42.722,130.619 41.469,123.241 42.440 M133.285 57.721 C 143.102 60.700,142.138 75.733,132.033 77.236 C 120.229 78.991,115.828 61.836,127.057 57.838 C 128.471 57.334,131.805 57.271,133.285 57.721 " stroke="none" fill="#04a4d4" fill-rule="evenodd"></path><path id="path3" d="M0.000 112.549 L 0.000 225.098 200.000 225.098 L 400.000 225.098 400.000 112.549 L 400.000 0.000 200.000 0.000 L 0.000 0.000 0.000 112.549 M316.699 20.859 L 317.235 21.235 317.090 29.357 C 317.010 33.824,316.781 42.060,316.580 47.659 C 316.241 57.078,316.242 58.506,316.584 66.778 C 317.215 82.027,317.315 91.657,316.845 92.126 C 316.489 92.483,315.645 92.515,306.686 92.515 L 296.915 92.515 296.537 91.938 C 296.124 91.307,296.215 77.669,296.683 70.118 C 296.967 65.539,296.965 58.814,296.679 58.638 C 296.476 58.512,296.080 59.267,294.612 62.577 C 293.913 64.154,293.812 64.394,293.191 65.954 C 292.870 66.759,292.514 67.620,292.398 67.867 C 292.283 68.115,291.844 69.178,291.423 70.231 C 289.828 74.212,288.555 77.337,288.350 77.772 C 288.233 78.019,287.771 79.133,287.323 80.248 C 281.357 95.088,282.170 93.734,279.303 93.602 C 276.176 93.459,275.868 93.089,272.694 85.650 C 272.482 85.155,272.130 84.344,271.911 83.849 C 271.071 81.948,270.781 81.275,269.439 78.109 C 268.678 76.314,267.912 74.516,267.736 74.114 C 267.036 72.508,266.710 71.756,264.930 67.642 C 260.637 57.715,260.757 57.757,260.967 66.275 C 261.420 84.614,261.430 91.592,261.002 92.065 C 260.548 92.567,242.520 92.781,241.756 92.293 C 241.371 92.048,241.374 84.164,241.764 75.746 C 242.405 61.877,242.483 57.327,242.231 48.569 C 242.090 43.708,241.880 36.337,241.763 32.189 C 241.646 28.042,241.505 24.065,241.449 23.353 C 241.261 20.946,240.661 21.097,251.313 20.869 C 261.783 20.644,260.832 20.471,261.970 22.804 C 262.942 24.795,264.716 28.600,264.716 28.693 C 264.716 28.736,265.157 29.717,265.697 30.874 C 266.237 32.031,267.011 33.737,267.418 34.665 C 267.824 35.594,268.649 37.397,269.250 38.672 C 269.851 39.947,270.343 41.028,270.343 41.075 C 270.343 41.121,270.850 42.237,271.469 43.557 C 272.088 44.876,272.594 45.992,272.594 46.037 C 272.594 46.082,273.008 47.011,273.515 48.101 C 274.021 49.192,274.642 50.540,274.894 51.097 C 276.654 54.984,278.048 57.604,278.667 58.188 L 279.382 58.863 279.846 58.301 C 280.244 57.817,283.801 50.706,285.757 46.483 C 286.101 45.740,286.939 43.967,287.619 42.544 C 288.870 39.924,289.942 37.646,291.275 34.778 C 291.678 33.911,292.564 32.037,293.245 30.613 C 293.926 29.190,294.763 27.417,295.105 26.674 C 298.157 20.048,296.904 20.809,304.649 20.878 C 308.128 20.909,311.581 20.846,312.324 20.738 C 314.625 20.405,316.110 20.447,316.699 20.859 M202.476 21.602 C 210.607 22.712,217.469 25.253,220.838 28.401 C 221.157 28.699,221.714 29.171,222.076 29.451 C 230.170 35.703,235.230 52.115,232.775 64.153 C 229.628 79.588,218.719 90.632,205.002 92.272 C 198.964 92.993,198.081 93.022,186.494 92.872 C 172.226 92.686,167.827 92.511,167.427 92.111 C 167.037 91.719,167.048 90.156,167.573 72.531 C 168.029 57.213,167.958 48.520,167.221 29.421 C 166.898 21.044,166.750 21.373,170.952 21.125 C 176.810 20.778,198.890 21.113,202.476 21.602 M360.270 21.267 C 374.887 21.716,384.740 29.509,387.172 42.544 C 387.970 46.824,387.633 54.586,386.489 58.231 C 383.866 66.593,379.263 71.878,372.050 74.809 C 368.721 76.162,364.134 76.610,357.025 76.279 C 350.433 75.971,348.588 76.048,348.118 76.647 C 347.703 77.178,347.727 78.179,348.348 86.485 C 348.896 93.815,349.646 93.070,341.925 92.861 C 330.441 92.549,328.007 92.420,327.698 92.110 C 327.463 91.873,327.428 89.324,327.518 79.054 C 327.688 59.817,327.610 44.528,327.318 39.978 C 327.174 37.737,326.956 34.029,326.832 31.739 C 326.708 29.449,326.512 26.470,326.397 25.121 C 326.146 22.170,326.227 21.964,327.797 21.593 C 329.835 21.113,348.980 20.920,360.270 21.267 M189.669 37.328 C 187.019 37.970,187.260 36.029,187.260 56.746 C 187.260 76.301,187.194 75.239,188.441 75.875 C 192.667 78.031,202.604 76.449,207.037 72.915 C 214.803 66.723,216.048 51.388,209.438 43.363 C 207.842 41.426,204.045 38.497,203.122 38.490 C 203.014 38.490,202.646 38.343,202.304 38.164 C 200.054 36.991,192.995 36.524,189.669 37.328 M348.488 37.815 C 348.074 37.913,347.618 38.110,347.475 38.254 C 347.152 38.576,346.998 51.703,347.262 56.378 L 347.440 59.521 348.227 59.711 C 349.734 60.075,357.355 60.182,359.213 59.866 C 364.598 58.949,367.136 55.492,367.136 49.071 C 367.136 42.952,364.843 39.407,359.948 37.954 C 358.622 37.561,350.007 37.456,348.488 37.815 M54.136 42.514 C 58.418 43.616,61.768 46.237,63.023 49.465 C 63.388 50.404,63.294 50.439,64.977 48.740 C 74.835 38.784,91.452 40.020,95.162 50.985 C 95.805 52.888,95.884 91.297,95.246 92.085 C 94.544 92.952,82.304 93.288,79.122 92.528 C 77.279 92.087,77.362 92.738,77.530 80.023 C 77.702 66.963,77.509 61.902,76.776 60.282 C 74.797 55.908,67.903 56.754,65.160 61.707 L 64.491 62.915 64.376 68.655 C 64.313 71.812,64.341 77.991,64.437 82.386 C 64.620 90.731,64.582 91.604,64.016 92.171 C 63.644 92.542,47.453 92.705,46.910 92.343 C 46.167 91.847,46.134 91.251,46.275 80.872 C 46.511 63.477,46.195 60.194,44.120 58.448 C 41.979 56.646,37.884 57.320,34.972 59.953 C 32.926 61.802,33.021 60.886,33.190 77.096 C 33.357 93.061,33.433 92.251,31.735 92.597 C 29.453 93.062,15.889 92.724,15.356 92.189 C 15.267 92.100,15.185 85.071,15.174 76.571 C 15.154 61.329,14.870 53.623,14.171 49.357 C 13.504 45.283,13.926 44.962,20.724 44.372 C 22.250 44.239,24.337 43.867,25.785 43.470 C 32.195 41.711,32.259 41.742,32.588 46.690 C 32.783 49.622,32.781 49.620,34.782 48.095 C 42.315 42.356,47.603 40.831,54.136 42.514 M132.470 42.500 C 135.352 43.273,137.977 44.848,139.747 46.867 C 140.818 48.087,141.053 47.858,141.812 44.854 C 141.944 44.330,142.291 43.624,142.582 43.286 L 143.112 42.670 146.345 43.196 C 149.613 43.728,150.593 43.929,154.868 44.943 C 158.780 45.870,158.516 45.062,157.469 52.898 C 156.742 58.338,156.478 68.221,156.866 75.521 C 157.859 94.230,158.322 92.306,152.722 92.728 C 150.984 92.859,147.632 92.966,145.272 92.966 C 140.172 92.966,140.402 93.087,139.894 90.136 C 139.310 86.748,139.456 86.825,137.244 88.752 C 129.044 95.900,118.651 95.294,110.683 87.202 C 99.519 75.866,101.145 54.114,113.776 45.825 C 119.059 42.358,126.808 40.980,132.470 42.500 M128.705 57.645 C 120.073 58.600,117.713 70.970,125.243 75.793 C 129.704 78.651,136.395 77.066,138.706 72.605 C 141.975 66.293,138.651 58.419,132.421 57.723 C 131.829 57.657,131.092 57.575,130.782 57.540 C 130.473 57.505,129.538 57.552,128.705 57.645 M132.628 133.394 C 133.472 133.831,133.708 134.503,133.710 136.481 C 133.713 138.873,134.102 142.912,134.626 146.001 C 135.216 149.479,135.159 150.619,134.384 150.818 C 133.728 150.986,129.172 150.766,122.791 150.258 C 111.964 149.397,106.938 149.310,105.292 149.953 C 103.171 150.781,102.674 157.125,104.559 159.307 L 105.294 160.158 110.779 160.158 C 113.795 160.158,119.418 160.066,123.274 159.955 L 130.285 159.752 130.647 160.452 C 131.833 162.744,131.894 177.037,130.724 178.208 C 130.295 178.636,129.817 178.635,123.467 178.189 C 119.529 177.913,115.947 177.816,111.536 177.867 C 104.439 177.950,104.035 178.032,103.551 179.497 C 103.245 180.425,103.558 190.897,104.139 199.160 C 104.647 206.384,105.454 205.847,94.340 205.678 C 85.423 205.544,83.673 205.299,83.106 204.108 C 82.799 203.463,82.840 201.025,83.538 178.053 C 83.811 169.052,83.689 163.413,82.948 150.929 C 82.214 138.545,82.067 134.808,82.301 134.437 C 82.720 133.773,83.764 133.715,91.277 133.934 C 100.769 134.211,109.028 134.213,112.324 133.939 C 113.748 133.820,116.837 133.606,119.190 133.463 C 130.396 132.780,131.431 132.775,132.628 133.394 M171.187 154.931 C 194.052 161.049,196.386 195.303,174.540 204.140 C 167.783 206.873,158.557 206.595,151.716 203.453 C 133.774 195.212,133.587 165.724,151.420 156.785 C 156.541 154.219,165.414 153.386,171.187 154.931 M275.189 155.059 C 279.191 156.106,283.324 159.336,283.974 161.926 C 284.227 162.935,284.503 162.850,286.061 161.281 C 295.886 151.384,312.860 152.650,316.269 163.534 C 316.603 164.601,316.787 203.795,316.461 204.428 C 315.791 205.726,300.675 205.890,299.103 204.617 L 298.593 204.204 298.593 189.721 C 298.593 173.089,298.611 173.267,296.754 171.410 C 293.959 168.614,288.518 170.082,286.207 174.256 L 285.537 175.464 285.514 189.645 C 285.487 205.760,285.531 204.251,285.071 204.711 C 284.437 205.345,268.315 205.234,267.733 204.591 C 267.321 204.135,267.304 203.559,267.304 189.566 C 267.304 173.018,267.331 173.283,265.504 171.381 C 263.251 169.036,258.866 169.685,255.721 172.830 C 253.998 174.554,254.069 173.742,254.167 190.556 C 254.260 206.378,254.466 204.887,252.141 205.220 C 248.860 205.691,236.729 205.222,236.351 204.610 C 236.252 204.450,236.113 196.206,236.043 186.290 C 235.973 176.374,235.828 167.501,235.720 166.573 C 234.613 157.038,234.253 157.603,241.881 156.915 C 243.249 156.791,245.478 156.390,246.833 156.022 C 253.277 154.275,253.317 154.293,253.539 159.111 C 253.692 162.430,253.518 162.376,256.612 160.061 C 261.404 156.476,264.187 155.179,268.430 154.554 C 269.744 154.360,273.629 154.650,275.189 155.059 M212.383 155.627 C 212.557 156.045,212.817 157.298,212.960 158.413 C 213.267 160.806,213.430 161.177,214.006 160.786 C 218.395 157.801,222.615 156.198,226.449 156.058 C 230.499 155.910,230.605 156.116,229.806 162.521 C 229.675 163.573,229.600 166.566,229.640 169.171 C 229.705 173.403,229.670 173.973,229.314 174.517 C 228.818 175.274,229.266 175.219,223.523 175.234 C 217.406 175.250,216.515 175.520,215.339 177.715 C 214.719 178.872,214.542 188.761,214.972 198.143 C 215.281 204.870,215.318 204.654,213.761 205.108 C 212.569 205.455,201.090 205.457,198.894 205.109 C 196.394 204.714,196.643 206.625,196.488 186.655 C 196.341 167.804,195.981 163.079,194.368 158.875 C 194.055 158.060,194.958 157.566,197.411 157.214 C 200.426 156.781,205.909 155.862,208.666 155.327 C 211.831 154.713,212.007 154.727,212.383 155.627 M161.678 170.259 C 154.985 171.962,152.731 182.020,157.834 187.416 C 163.936 193.868,174.123 187.747,172.652 178.512 C 171.684 172.436,166.992 168.907,161.678 170.259 " stroke="none" fill="#fbfbfb" fill-rule="evenodd"></path><path id="path4" d="M314.181 20.647 C 314.584 20.697,315.242 20.697,315.644 20.647 C 316.047 20.597,315.718 20.556,314.913 20.556 C 314.108 20.556,313.779 20.597,314.181 20.647 M257.164 20.878 C 259.952 20.935,260.609 21.013,260.991 21.334 C 261.450 21.721,261.450 21.720,261.023 21.216 C 260.610 20.727,260.473 20.711,257.196 20.759 L 253.799 20.809 257.164 20.878 M299.329 20.872 C 299.733 20.922,300.341 20.921,300.679 20.870 C 301.018 20.819,300.687 20.778,299.944 20.779 C 299.201 20.780,298.924 20.822,299.329 20.872 M311.930 20.868 C 312.209 20.922,312.665 20.922,312.943 20.868 C 313.222 20.814,312.994 20.770,312.437 20.770 C 311.880 20.770,311.652 20.814,311.930 20.868 M174.170 21.099 C 174.696 21.146,175.557 21.146,176.083 21.099 C 176.609 21.052,176.179 21.013,175.127 21.013 C 174.074 21.013,173.644 21.052,174.170 21.099 M187.461 21.102 C 188.489 21.144,190.109 21.143,191.063 21.101 C 192.017 21.059,191.176 21.025,189.195 21.025 C 187.214 21.026,186.434 21.060,187.461 21.102 M244.748 21.101 C 245.589 21.145,246.905 21.144,247.674 21.101 C 248.443 21.057,247.755 21.021,246.145 21.022 C 244.536 21.022,243.907 21.058,244.748 21.101 M297.754 21.328 C 297.364 21.772,296.449 23.523,296.465 23.795 C 296.471 23.893,296.736 23.467,297.054 22.847 C 297.372 22.228,297.788 21.545,297.979 21.328 C 298.169 21.111,298.275 20.934,298.213 20.934 C 298.151 20.934,297.944 21.111,297.754 21.328 M305.861 21.101 C 306.640 21.145,307.856 21.145,308.563 21.100 C 309.270 21.056,308.633 21.020,307.147 21.020 C 305.661 21.021,305.083 21.057,305.861 21.101 M343.000 21.099 C 343.529 21.147,344.340 21.146,344.801 21.098 C 345.262 21.049,344.828 21.011,343.838 21.011 C 342.847 21.012,342.470 21.052,343.000 21.099 M168.486 21.371 C 168.231 21.472,168.767 21.507,169.724 21.449 C 171.923 21.318,172.246 21.195,170.400 21.193 C 169.595 21.192,168.734 21.272,168.486 21.371 M195.854 21.241 C 195.906 21.286,197.214 21.372,198.762 21.433 C 200.455 21.500,201.172 21.475,200.563 21.369 C 199.549 21.192,195.678 21.087,195.854 21.241 M329.432 21.376 C 328.813 21.456,330.129 21.477,332.358 21.423 C 334.586 21.368,336.452 21.287,336.503 21.242 C 336.659 21.105,330.642 21.219,329.432 21.376 M354.192 21.272 C 354.316 21.315,356.595 21.388,359.257 21.434 C 361.919 21.481,363.590 21.447,362.971 21.359 C 361.865 21.201,353.752 21.121,354.192 21.272 M204.615 22.032 C 205.426 22.292,207.303 22.534,206.753 22.308 C 206.505 22.206,205.796 22.061,205.177 21.986 C 204.484 21.903,204.268 21.920,204.615 22.032 M326.420 22.235 C 326.288 22.480,326.280 23.456,326.398 24.767 L 326.590 26.899 326.509 24.703 C 326.446 22.976,326.500 22.434,326.764 22.170 C 326.949 21.986,326.995 21.835,326.867 21.835 C 326.739 21.835,326.537 22.015,326.420 22.235 M366.573 22.029 C 367.232 22.304,368.670 22.542,368.261 22.310 C 368.075 22.204,367.518 22.055,367.023 21.980 C 366.455 21.893,366.289 21.911,366.573 22.029 M167.105 24.648 C 167.106 25.886,167.144 26.364,167.189 25.710 C 167.235 25.056,167.234 24.043,167.188 23.459 C 167.142 22.875,167.105 23.410,167.105 24.648 M369.724 22.856 C 370.096 23.026,370.551 23.162,370.737 23.158 C 370.923 23.154,370.720 23.014,370.287 22.847 C 369.259 22.452,368.855 22.458,369.724 22.856 M208.891 22.960 C 209.661 23.207,210.253 23.207,209.679 22.960 C 209.432 22.854,209.026 22.770,208.779 22.773 C 208.417 22.779,208.439 22.815,208.891 22.960 M211.367 23.597 C 211.553 23.712,211.958 23.874,212.268 23.957 C 212.659 24.061,212.728 24.043,212.493 23.898 C 212.307 23.784,211.902 23.622,211.593 23.539 C 211.201 23.435,211.133 23.452,211.367 23.597 M372.088 23.748 C 372.397 23.925,372.752 24.070,372.876 24.070 C 372.999 24.070,372.847 23.925,372.538 23.748 C 372.228 23.571,371.874 23.426,371.750 23.426 C 371.626 23.426,371.778 23.571,372.088 23.748 M262.481 24.198 C 262.481 24.322,262.626 24.676,262.802 24.986 C 262.979 25.295,263.124 25.447,263.124 25.324 C 263.124 25.200,262.979 24.845,262.802 24.536 C 262.626 24.226,262.481 24.074,262.481 24.198 M215.213 25.070 C 215.445 25.277,216.770 25.886,216.770 25.785 C 216.770 25.656,215.522 24.986,215.280 24.986 C 215.192 24.986,215.161 25.024,215.213 25.070 M241.609 27.012 C 241.609 28.064,241.648 28.495,241.695 27.968 C 241.743 27.442,241.743 26.581,241.695 26.055 C 241.648 25.529,241.609 25.959,241.609 27.012 M263.291 26.059 C 263.362 26.339,263.509 26.624,263.617 26.691 C 263.926 26.881,263.851 26.470,263.489 25.986 C 263.174 25.564,263.167 25.567,263.291 26.059 M218.571 26.940 C 219.499 27.556,220.398 28.229,220.568 28.436 C 220.738 28.643,220.991 28.810,221.131 28.808 C 221.559 28.799,218.121 26.257,217.281 25.960 C 217.062 25.883,217.642 26.324,218.571 26.940 M317.026 29.150 C 317.027 30.760,317.062 31.389,317.106 30.548 C 317.149 29.707,317.149 28.390,317.105 27.621 C 317.061 26.853,317.026 27.541,317.026 29.150 M264.056 27.575 C 264.056 27.698,264.201 28.053,264.378 28.362 C 264.555 28.672,264.700 28.824,264.700 28.700 C 264.700 28.576,264.555 28.222,264.378 27.912 C 264.201 27.603,264.056 27.451,264.056 27.575 M326.675 28.250 C 326.677 28.745,326.723 28.921,326.777 28.641 C 326.831 28.361,326.829 27.956,326.773 27.741 C 326.716 27.526,326.672 27.755,326.675 28.250 M379.966 28.925 C 380.764 29.730,381.467 30.388,381.529 30.388 C 381.591 30.388,380.989 29.730,380.191 28.925 C 379.394 28.120,378.691 27.462,378.629 27.462 C 378.567 27.462,379.169 28.120,379.966 28.925 M167.330 30.726 C 167.331 31.964,167.369 32.442,167.414 31.788 C 167.460 31.133,167.460 30.121,167.413 29.537 C 167.367 28.953,167.330 29.488,167.330 30.726 M241.782 33.446 C 241.797 35.664,241.884 38.492,241.976 39.730 C 242.071 41.011,242.095 39.314,242.032 35.791 C 241.970 32.386,241.883 29.558,241.838 29.507 C 241.793 29.455,241.768 31.228,241.782 33.446 M264.957 29.600 C 264.957 29.724,265.102 30.079,265.279 30.388 C 265.455 30.698,265.600 30.850,265.600 30.726 C 265.600 30.602,265.455 30.248,265.279 29.938 C 265.102 29.629,264.957 29.477,264.957 29.600 M223.254 30.782 C 223.748 31.370,224.436 32.105,224.782 32.414 C 225.127 32.724,224.762 32.243,223.970 31.345 C 222.359 29.518,221.867 29.132,223.254 30.782 M381.773 30.752 C 381.776 30.861,382.055 31.259,382.392 31.635 C 383.071 32.393,383.011 32.200,382.258 31.202 C 381.988 30.845,381.770 30.642,381.773 30.752 M326.913 32.077 C 326.914 32.819,326.956 33.096,327.006 32.692 C 327.056 32.287,327.055 31.679,327.004 31.341 C 326.952 31.003,326.911 31.334,326.913 32.077 M266.307 32.527 C 266.307 32.651,266.452 33.005,266.629 33.315 C 266.806 33.624,266.951 33.776,266.951 33.652 C 266.951 33.528,266.806 33.174,266.629 32.864 C 266.452 32.555,266.307 32.403,266.307 32.527 M291.764 33.662 C 291.387 34.490,291.459 34.666,291.867 33.914 C 292.057 33.562,292.171 33.233,292.119 33.181 C 292.068 33.130,291.908 33.346,291.764 33.662 M383.995 34.102 C 384.375 34.837,384.687 35.244,384.685 35.003 C 384.684 34.879,384.476 34.524,384.223 34.215 C 383.917 33.841,383.841 33.803,383.995 34.102 M327.096 36.147 C 327.111 37.375,327.201 39.088,327.296 39.955 C 327.400 40.916,327.422 40.081,327.351 37.817 C 327.224 33.734,327.052 32.608,327.096 36.147 M267.208 34.553 C 267.208 34.676,267.353 35.031,267.530 35.340 C 267.706 35.650,267.851 35.802,267.851 35.678 C 267.851 35.554,267.706 35.200,267.530 34.890 C 267.353 34.581,267.208 34.429,267.208 34.553 M316.601 40.794 C 316.510 43.806,316.479 46.470,316.532 46.714 C 316.585 46.958,316.707 44.542,316.804 41.345 C 316.901 38.148,316.932 35.484,316.873 35.424 C 316.813 35.365,316.691 37.781,316.601 40.794 M268.108 36.579 C 268.108 36.702,268.253 37.057,268.430 37.366 C 268.607 37.676,268.752 37.828,268.752 37.704 C 268.752 37.580,268.607 37.226,268.430 36.916 C 268.253 36.607,268.108 36.455,268.108 36.579 M290.189 37.038 C 289.811 37.866,289.883 38.043,290.291 37.290 C 290.482 36.939,290.595 36.609,290.544 36.558 C 290.492 36.506,290.332 36.722,290.189 37.038 M193.528 36.857 C 194.178 36.902,195.242 36.902,195.892 36.857 C 196.542 36.812,196.010 36.774,194.710 36.774 C 193.410 36.774,192.878 36.812,193.528 36.857 M167.557 39.167 C 167.557 40.467,167.594 40.999,167.639 40.349 C 167.685 39.699,167.685 38.635,167.639 37.985 C 167.594 37.335,167.557 37.867,167.557 39.167 M188.745 37.366 C 188.171 37.613,188.763 37.613,189.533 37.366 C 189.985 37.221,190.007 37.185,189.645 37.180 C 189.398 37.176,188.993 37.260,188.745 37.366 M199.006 37.224 C 199.057 37.269,199.505 37.368,200.000 37.444 C 200.628 37.539,200.764 37.519,200.450 37.377 C 200.018 37.181,198.812 37.053,199.006 37.224 M352.347 37.534 C 353.561 37.575,355.485 37.575,356.624 37.534 C 357.763 37.493,356.770 37.460,354.418 37.460 C 352.065 37.460,351.134 37.494,352.347 37.534 M201.913 37.946 C 201.913 38.098,203.083 38.523,203.194 38.412 C 203.245 38.361,202.978 38.211,202.600 38.079 C 202.222 37.948,201.913 37.888,201.913 37.946 M347.340 38.138 C 347.193 38.316,347.113 38.847,347.162 39.320 L 347.251 40.180 347.289 39.235 C 347.314 38.601,347.457 38.214,347.721 38.060 C 347.938 37.933,348.001 37.827,347.861 37.823 C 347.721 37.820,347.487 37.961,347.340 38.138 M359.932 37.864 C 359.994 37.925,360.397 38.094,360.828 38.239 C 361.258 38.385,361.511 38.407,361.390 38.289 C 361.269 38.170,360.867 38.001,360.495 37.913 C 360.124 37.825,359.871 37.803,359.932 37.864 M362.449 39.002 C 362.905 39.279,363.614 39.741,364.025 40.030 L 364.772 40.555 364.097 39.955 C 363.268 39.218,362.149 38.493,361.846 38.496 C 361.722 38.498,361.994 38.725,362.449 39.002 M204.063 38.906 C 204.417 39.219,205.965 40.112,205.965 40.003 C 205.965 39.868,204.217 38.717,204.012 38.717 C 203.922 38.717,203.945 38.802,204.063 38.906 M269.684 39.955 C 269.684 40.079,269.829 40.433,270.006 40.743 C 270.183 41.052,270.327 41.204,270.327 41.080 C 270.327 40.957,270.183 40.602,270.006 40.293 C 269.829 39.983,269.684 39.831,269.684 39.955 M386.526 40.180 C 386.526 40.428,386.613 40.833,386.719 41.080 L 386.913 41.531 386.913 41.080 C 386.913 40.833,386.826 40.428,386.719 40.180 L 386.526 39.730 386.526 40.180 M288.388 40.865 C 288.011 41.693,288.083 41.869,288.490 41.117 C 288.681 40.765,288.794 40.436,288.743 40.384 C 288.692 40.333,288.532 40.549,288.388 40.865 M346.978 47.608 C 346.977 51.694,347.008 53.397,347.045 51.393 C 347.082 49.389,347.082 46.046,347.045 43.965 C 347.008 41.883,346.978 43.523,346.978 47.608 M208.207 41.925 C 208.759 42.513,209.240 42.994,209.276 42.994 C 209.445 42.994,209.266 42.792,208.272 41.859 L 207.203 40.855 208.207 41.925 M47.965 41.950 C 48.016 41.994,49.173 42.083,50.535 42.147 C 52.116 42.221,52.645 42.198,51.998 42.083 C 50.985 41.902,47.788 41.796,47.965 41.950 M79.403 42.031 C 79.806 42.081,80.464 42.081,80.867 42.031 C 81.269 41.981,80.940 41.940,80.135 41.940 C 79.330 41.940,79.001 41.981,79.403 42.031 M126.562 42.034 C 127.150 42.080,128.112 42.080,128.700 42.034 C 129.288 41.987,128.807 41.949,127.631 41.949 C 126.455 41.949,125.974 41.987,126.562 42.034 M270.584 41.981 C 270.584 42.105,270.729 42.459,270.906 42.769 C 271.083 43.078,271.228 43.230,271.228 43.106 C 271.228 42.983,271.083 42.628,270.906 42.319 C 270.729 42.009,270.584 41.857,270.584 41.981 M365.576 41.981 C 365.576 42.105,365.721 42.459,365.898 42.769 C 366.075 43.078,366.219 43.230,366.219 43.106 C 366.219 42.983,366.075 42.628,365.898 42.319 C 365.721 42.009,365.576 41.857,365.576 41.981 M46.542 42.253 C 46.822 42.306,47.227 42.304,47.442 42.248 C 47.657 42.192,47.428 42.148,46.933 42.150 C 46.438 42.153,46.262 42.199,46.542 42.253 M77.380 42.253 C 77.660 42.306,78.065 42.304,78.281 42.248 C 78.496 42.192,78.267 42.148,77.772 42.150 C 77.276 42.153,77.100 42.199,77.380 42.253 M82.220 42.255 C 82.562 42.307,83.069 42.305,83.346 42.252 C 83.623 42.198,83.343 42.156,82.724 42.158 C 82.105 42.159,81.878 42.203,82.220 42.255 M122.791 42.324 C 122.382 42.432,122.736 42.454,123.692 42.380 C 124.558 42.312,125.310 42.220,125.361 42.175 C 125.534 42.025,123.475 42.144,122.791 42.324 M130.163 42.249 C 130.380 42.305,130.734 42.305,130.951 42.249 C 131.168 42.192,130.990 42.146,130.557 42.146 C 130.124 42.146,129.947 42.192,130.163 42.249 M167.811 57.400 C 167.811 65.757,167.875 70.822,167.952 68.655 C 168.134 63.606,168.133 51.485,167.952 46.258 C 167.874 44.029,167.811 49.043,167.811 57.400 M187.029 50.028 C 186.983 54.268,186.996 60.777,187.059 64.491 C 187.143 69.378,187.185 67.247,187.215 56.781 C 187.237 48.827,187.223 42.319,187.185 42.319 C 187.146 42.319,187.076 45.788,187.029 50.028 M42.881 43.098 C 42.012 43.496,42.416 43.502,43.444 43.106 C 43.877 42.939,44.080 42.800,43.894 42.796 C 43.708 42.792,43.253 42.928,42.881 43.098 M55.149 42.844 C 55.149 42.902,55.476 43.064,55.876 43.203 C 56.275 43.342,56.503 43.364,56.382 43.250 C 56.126 43.010,55.149 42.689,55.149 42.844 M119.640 42.994 C 119.356 43.116,119.314 43.187,119.527 43.187 C 119.713 43.187,120.068 43.100,120.315 42.994 C 120.599 42.872,120.641 42.800,120.428 42.800 C 120.242 42.800,119.887 42.887,119.640 42.994 M142.579 43.275 L 142.150 43.782 142.644 43.364 C 143.052 43.019,143.383 42.968,144.557 43.071 C 145.715 43.173,145.810 43.159,145.076 42.995 C 143.607 42.668,143.038 42.732,142.579 43.275 M387.347 45.357 C 387.407 46.595,387.492 47.651,387.538 47.702 C 387.687 47.873,387.569 44.469,387.402 43.782 C 387.312 43.410,387.287 44.119,387.347 45.357 M56.950 43.545 C 56.950 43.607,57.254 43.815,57.625 44.007 C 57.997 44.199,58.301 44.305,58.301 44.243 C 58.301 44.182,57.997 43.974,57.625 43.782 C 57.254 43.590,56.950 43.483,56.950 43.545 M117.558 43.676 C 116.804 43.979,116.945 44.133,117.727 43.860 C 118.098 43.731,118.402 43.584,118.402 43.535 C 118.402 43.401,118.128 43.447,117.558 43.676 M148.809 43.752 C 148.860 43.797,149.308 43.896,149.803 43.972 C 150.431 44.067,150.567 44.047,150.253 43.905 C 149.821 43.709,148.615 43.581,148.809 43.752 M286.461 44.920 C 285.670 46.647,285.738 46.791,286.576 45.166 C 286.950 44.442,287.209 43.802,287.151 43.745 C 287.094 43.687,286.783 44.216,286.461 44.920 M366.492 44.119 C 366.492 44.305,366.579 44.660,366.685 44.907 C 366.807 45.191,366.879 45.233,366.879 45.020 C 366.879 44.834,366.792 44.479,366.685 44.232 C 366.563 43.948,366.492 43.906,366.492 44.119 M19.980 44.504 C 20.260 44.557,20.665 44.555,20.881 44.499 C 21.096 44.443,20.867 44.399,20.371 44.401 C 19.876 44.404,19.700 44.450,19.980 44.504 M152.729 44.569 C 152.977 44.676,153.382 44.760,153.630 44.756 C 153.992 44.751,153.970 44.714,153.517 44.569 C 152.748 44.323,152.156 44.323,152.729 44.569 M18.179 44.729 C 18.459 44.783,18.865 44.781,19.080 44.724 C 19.295 44.668,19.066 44.624,18.571 44.626 C 18.075 44.629,17.899 44.675,18.179 44.729 M91.615 45.808 C 92.035 46.241,92.429 46.595,92.491 46.595 C 92.553 46.595,92.260 46.241,91.840 45.808 C 91.420 45.374,91.026 45.020,90.964 45.020 C 90.902 45.020,91.195 45.374,91.615 45.808 M138.097 45.434 C 138.342 45.724,138.747 46.066,138.996 46.194 C 139.474 46.438,139.404 46.363,138.325 45.467 C 137.675 44.927,137.667 44.926,138.097 45.434 M211.022 45.639 C 211.218 46.041,211.427 46.370,211.486 46.370 C 211.710 46.370,211.565 46.012,211.124 45.470 L 210.665 44.907 211.022 45.639 M156.331 45.470 C 156.579 45.576,156.933 45.663,157.119 45.663 C 157.332 45.663,157.290 45.592,157.006 45.470 C 156.759 45.363,156.404 45.276,156.218 45.276 C 156.006 45.276,156.047 45.348,156.331 45.470 M327.599 47.271 C 327.599 48.447,327.637 48.928,327.684 48.340 C 327.730 47.752,327.730 46.790,327.684 46.201 C 327.637 45.613,327.599 46.095,327.599 47.271 M67.867 46.277 L 67.192 46.858 67.923 46.374 C 68.326 46.107,68.655 45.846,68.655 45.792 C 68.655 45.624,68.560 45.682,67.867 46.277 M32.488 47.383 C 32.489 48.250,32.530 48.577,32.578 48.110 C 32.627 47.643,32.626 46.934,32.577 46.534 C 32.527 46.134,32.487 46.517,32.488 47.383 M231.883 46.370 C 231.883 46.556,231.970 46.911,232.077 47.158 C 232.198 47.442,232.270 47.484,232.270 47.271 C 232.270 47.085,232.183 46.730,232.077 46.483 C 231.955 46.199,231.883 46.157,231.883 46.370 M36.353 46.953 L 35.678 47.533 36.410 47.049 C 36.812 46.783,37.141 46.521,37.141 46.468 C 37.141 46.299,37.046 46.358,36.353 46.953 M242.290 48.734 C 242.291 50.096,242.328 50.624,242.373 49.907 C 242.417 49.191,242.417 48.077,242.372 47.431 C 242.326 46.786,242.290 47.372,242.290 48.734 M211.859 47.200 C 212.256 48.134,212.546 48.389,212.252 47.547 C 212.112 47.147,211.906 46.763,211.794 46.693 C 211.681 46.624,211.710 46.852,211.859 47.200 M66.277 47.552 L 65.616 48.284 66.348 47.622 C 67.030 47.006,67.183 46.820,67.009 46.820 C 66.970 46.820,66.641 47.150,66.277 47.552 M110.523 48.509 C 109.601 49.437,108.897 50.197,108.959 50.197 C 109.021 50.197,109.826 49.437,110.748 48.509 C 111.671 47.580,112.375 46.820,112.313 46.820 C 112.251 46.820,111.446 47.580,110.523 48.509 M158.071 47.496 C 158.071 47.929,158.118 48.106,158.174 47.890 C 158.231 47.673,158.231 47.319,158.174 47.102 C 158.118 46.885,158.071 47.062,158.071 47.496 M272.835 46.933 C 272.835 47.057,272.980 47.411,273.157 47.721 C 273.334 48.030,273.479 48.182,273.479 48.059 C 273.479 47.935,273.334 47.580,273.157 47.271 C 272.980 46.961,272.835 46.809,272.835 46.933 M14.013 47.833 C 14.015 48.329,14.061 48.505,14.115 48.225 C 14.169 47.945,14.167 47.540,14.111 47.324 C 14.054 47.109,14.010 47.338,14.013 47.833 M62.271 48.284 C 62.791 49.172,62.802 49.186,62.802 48.909 C 62.802 48.778,62.594 48.432,62.339 48.140 L 61.875 47.608 62.271 48.284 M367.208 49.071 C 367.208 49.876,367.249 50.205,367.298 49.803 C 367.348 49.401,367.348 48.742,367.298 48.340 C 367.249 47.938,367.208 48.267,367.208 49.071 M316.351 50.760 C 316.351 52.369,316.387 52.998,316.431 52.157 C 316.474 51.316,316.474 50.000,316.430 49.231 C 316.386 48.462,316.350 49.150,316.351 50.760 M212.645 49.184 C 212.719 49.555,212.863 50.011,212.967 50.197 C 213.304 50.803,213.188 49.944,212.830 49.184 L 212.511 48.509 212.645 49.184 M14.233 49.522 C 14.233 49.955,14.280 50.132,14.336 49.916 C 14.393 49.699,14.393 49.344,14.336 49.128 C 14.280 48.911,14.233 49.088,14.233 49.522 M273.720 49.015 C 273.720 49.123,273.867 49.407,274.046 49.647 C 274.361 50.069,274.368 50.066,274.244 49.574 C 274.116 49.066,273.720 48.644,273.720 49.015 M284.006 50.096 C 283.179 51.781,283.255 51.980,284.100 50.343 C 284.474 49.619,284.742 48.989,284.696 48.943 C 284.650 48.897,284.339 49.415,284.006 50.096 M62.809 49.422 C 62.786 50.227,63.444 50.543,63.971 49.980 C 64.484 49.433,64.484 49.431,63.983 49.848 C 63.435 50.302,63.441 50.304,63.068 49.634 C 62.929 49.387,62.813 49.291,62.809 49.422 M387.438 50.559 C 387.414 51.316,387.347 52.430,387.288 53.036 L 387.182 54.136 387.411 53.038 C 387.537 52.435,387.604 51.320,387.560 50.562 L 387.481 49.184 387.438 50.559 M232.805 50.422 C 232.805 50.732,232.882 51.289,232.977 51.660 C 233.130 52.262,233.149 52.275,233.149 51.773 C 233.149 51.463,233.071 50.906,232.977 50.535 C 232.824 49.932,232.805 49.920,232.805 50.422 M108.454 50.816 C 108.057 51.278,107.760 51.773,107.879 51.773 C 107.925 51.773,108.187 51.469,108.462 51.097 C 109.004 50.364,108.999 50.181,108.454 50.816 M95.008 50.872 C 95.009 50.934,95.158 51.542,95.338 52.223 C 95.649 53.394,95.660 53.407,95.546 52.470 C 95.452 51.701,94.995 50.343,95.008 50.872 M157.396 52.223 C 157.396 52.656,157.442 52.833,157.499 52.617 C 157.556 52.400,157.556 52.046,157.499 51.829 C 157.442 51.612,157.396 51.790,157.396 52.223 M275.311 52.335 C 275.311 52.459,275.456 52.814,275.633 53.123 C 275.810 53.433,275.955 53.585,275.955 53.461 C 275.955 53.337,275.810 52.983,275.633 52.673 C 275.456 52.364,275.311 52.212,275.311 52.335 M366.589 53.477 C 366.506 53.807,366.482 54.120,366.535 54.173 C 366.588 54.226,366.699 54.000,366.782 53.670 C 366.865 53.340,366.889 53.027,366.836 52.974 C 366.783 52.921,366.672 53.147,366.589 53.477 M157.176 53.911 C 157.178 54.406,157.224 54.582,157.278 54.302 C 157.332 54.022,157.330 53.617,157.273 53.402 C 157.217 53.187,157.173 53.416,157.176 53.911 M213.710 56.612 C 213.710 58.593,213.744 59.373,213.786 58.346 C 213.828 57.319,213.828 55.698,213.786 54.745 C 213.743 53.791,213.709 54.631,213.710 56.612 M233.272 54.811 C 233.273 55.554,233.315 55.831,233.365 55.426 C 233.415 55.022,233.414 54.414,233.363 54.076 C 233.312 53.738,233.271 54.069,233.272 54.811 M281.533 55.270 C 281.076 56.194,280.750 56.950,280.809 56.950 C 280.960 56.950,282.546 53.771,282.446 53.671 C 282.401 53.626,281.990 54.345,281.533 55.270 M14.693 54.924 C 14.693 55.481,14.737 55.709,14.790 55.431 C 14.844 55.152,14.844 54.696,14.790 54.418 C 14.737 54.139,14.693 54.367,14.693 54.924 M276.196 54.331 C 276.196 54.575,277.315 56.725,277.441 56.725 C 277.503 56.725,277.287 56.193,276.960 55.543 C 276.332 54.293,276.196 54.076,276.196 54.331 M347.138 57.218 C 347.118 58.418,347.178 59.447,347.271 59.505 C 347.364 59.562,347.412 58.885,347.378 57.998 C 347.273 55.256,347.176 54.939,347.138 57.218 M14.932 57.625 C 14.932 58.554,14.972 58.934,15.020 58.469 C 15.069 58.005,15.069 57.245,15.020 56.781 C 14.972 56.317,14.932 56.697,14.932 57.625 M386.558 57.086 C 386.419 57.692,386.342 58.223,386.385 58.267 C 386.510 58.392,386.980 56.494,386.890 56.225 C 386.846 56.093,386.697 56.480,386.558 57.086 M233.276 58.413 C 233.277 59.280,233.318 59.607,233.366 59.140 C 233.415 58.673,233.414 57.964,233.364 57.564 C 233.315 57.164,233.275 57.546,233.276 58.413 M277.723 57.288 C 277.851 57.535,278.243 57.991,278.595 58.300 L 279.235 58.862 278.561 58.075 C 277.494 56.828,277.479 56.814,277.723 57.288 M40.352 57.337 C 40.694 57.388,41.201 57.387,41.477 57.333 C 41.754 57.280,41.474 57.238,40.855 57.239 C 40.236 57.241,40.010 57.285,40.352 57.337 M70.343 57.391 C 70.079 57.500,70.497 57.527,71.356 57.458 C 72.161 57.393,72.862 57.302,72.913 57.257 C 73.103 57.091,70.779 57.213,70.343 57.391 M128.591 57.562 C 128.933 57.613,129.439 57.612,129.716 57.559 C 129.993 57.505,129.713 57.463,129.094 57.464 C 128.475 57.466,128.248 57.510,128.591 57.562 M131.067 57.562 C 131.409 57.613,131.915 57.612,132.192 57.559 C 132.469 57.505,132.189 57.463,131.570 57.464 C 130.951 57.466,130.725 57.510,131.067 57.562 M74.845 57.995 C 75.991 59.012,76.414 59.309,75.972 58.786 C 75.726 58.496,75.322 58.154,75.073 58.027 C 74.824 57.900,74.721 57.885,74.845 57.995 M66.827 59.443 L 65.841 60.361 66.911 59.508 C 67.499 59.039,67.980 58.626,67.980 58.590 C 67.980 58.417,67.734 58.599,66.827 59.443 M156.733 59.539 C 156.735 60.158,156.778 60.384,156.830 60.042 C 156.882 59.700,156.880 59.193,156.827 58.916 C 156.774 58.640,156.731 58.920,156.733 59.539 M361.958 59.088 C 361.649 59.265,361.497 59.410,361.621 59.410 C 361.745 59.410,362.099 59.265,362.409 59.088 C 362.718 58.911,362.870 58.767,362.746 58.767 C 362.622 58.767,362.268 58.911,361.958 59.088 M385.864 59.584 C 385.531 60.669,385.692 60.830,386.044 59.764 C 386.192 59.314,386.270 58.902,386.217 58.848 C 386.163 58.795,386.004 59.126,385.864 59.584 M34.428 60.270 L 33.652 61.114 34.496 60.339 C 35.282 59.616,35.444 59.426,35.272 59.426 C 35.234 59.426,34.855 59.806,34.428 60.270 M104.108 60.101 C 104.023 60.490,104.000 60.856,104.057 60.913 C 104.114 60.970,104.226 60.694,104.305 60.298 C 104.493 59.360,104.311 59.178,104.108 60.101 M296.985 61.339 C 296.984 62.454,297.022 62.938,297.069 62.415 C 297.117 61.893,297.117 60.981,297.071 60.389 C 297.024 59.798,296.985 60.225,296.985 61.339 M76.549 59.764 C 76.549 59.887,76.694 60.242,76.871 60.551 C 77.048 60.861,77.193 61.013,77.193 60.889 C 77.193 60.765,77.048 60.411,76.871 60.101 C 76.694 59.792,76.549 59.640,76.549 59.764 M348.227 59.872 C 348.783 60.054,350.641 60.177,350.460 60.020 C 350.408 59.975,349.758 59.882,349.015 59.813 C 348.176 59.735,347.878 59.757,348.227 59.872 M359.145 59.876 C 358.538 60.031,358.527 60.048,359.032 60.052 C 359.342 60.055,359.848 59.975,360.158 59.876 C 360.914 59.634,360.097 59.634,359.145 59.876 M261.715 60.499 C 261.786 60.779,261.933 61.064,262.042 61.131 C 262.350 61.321,262.275 60.910,261.913 60.426 C 261.598 60.004,261.591 60.007,261.715 60.499 M352.560 60.269 C 353.644 60.310,355.416 60.310,356.500 60.269 C 357.583 60.228,356.697 60.194,354.530 60.194 C 352.364 60.194,351.477 60.228,352.560 60.269 M15.164 62.690 C 15.164 63.928,15.202 64.406,15.248 63.752 C 15.293 63.097,15.293 62.085,15.247 61.501 C 15.201 60.917,15.163 61.452,15.164 62.690 M260.741 62.240 C 260.742 63.230,260.782 63.607,260.829 63.078 C 260.877 62.548,260.876 61.738,260.828 61.277 C 260.779 60.816,260.740 61.249,260.741 62.240 M95.531 63.928 C 95.531 65.723,95.566 66.458,95.609 65.560 C 95.652 64.662,95.652 63.194,95.609 62.296 C 95.566 61.398,95.531 62.133,95.531 63.928 M232.864 62.127 C 232.776 62.885,232.755 63.556,232.817 63.618 C 232.879 63.680,233.001 63.110,233.089 62.352 C 233.177 61.594,233.199 60.923,233.137 60.862 C 233.075 60.800,232.952 61.369,232.864 62.127 M156.542 66.967 C 156.542 70.310,156.573 71.708,156.612 70.075 C 156.650 68.442,156.650 65.707,156.612 63.998 C 156.574 62.288,156.542 63.624,156.542 66.967 M33.308 61.689 C 33.172 61.944,33.094 62.252,33.134 62.375 C 33.175 62.497,33.325 62.289,33.467 61.912 C 33.763 61.128,33.674 61.005,33.308 61.689 M316.346 63.815 C 316.346 65.053,316.384 65.531,316.430 64.877 C 316.475 64.223,316.475 63.210,316.429 62.626 C 316.382 62.042,316.345 62.577,316.346 63.815 M262.481 62.015 C 262.481 62.138,262.626 62.493,262.802 62.802 C 262.979 63.112,263.124 63.264,263.124 63.140 C 263.124 63.016,262.979 62.662,262.802 62.352 C 262.626 62.043,262.481 61.891,262.481 62.015 M242.286 64.266 C 242.285 65.380,242.323 65.864,242.370 65.342 C 242.418 64.819,242.418 63.908,242.372 63.316 C 242.325 62.724,242.287 63.151,242.286 64.266 M46.232 65.279 C 46.232 66.826,46.268 67.459,46.312 66.685 C 46.356 65.912,46.356 64.645,46.312 63.872 C 46.268 63.098,46.232 63.731,46.232 65.279 M212.859 63.506 C 212.671 64.444,212.853 64.626,213.056 63.703 C 213.141 63.314,213.164 62.948,213.107 62.891 C 213.049 62.834,212.938 63.110,212.859 63.506 M384.175 63.593 C 383.969 64.025,383.847 64.378,383.903 64.378 C 384.057 64.378,384.741 63.000,384.638 62.897 C 384.589 62.848,384.380 63.161,384.175 63.593 M77.515 65.053 C 77.515 66.230,77.553 66.711,77.599 66.123 C 77.646 65.535,77.646 64.572,77.599 63.984 C 77.553 63.396,77.515 63.877,77.515 65.053 M263.381 64.041 C 263.381 64.164,263.526 64.519,263.703 64.828 C 263.880 65.138,264.025 65.290,264.025 65.166 C 264.025 65.042,263.880 64.688,263.703 64.378 C 263.526 64.069,263.381 63.917,263.381 64.041 M103.396 65.729 C 103.396 66.657,103.436 67.037,103.484 66.573 C 103.533 66.109,103.533 65.349,103.484 64.885 C 103.436 64.420,103.396 64.800,103.396 65.729 M64.248 69.443 C 64.247 71.919,64.280 72.963,64.321 71.762 C 64.361 70.562,64.361 68.536,64.321 67.260 C 64.281 65.985,64.248 66.967,64.248 69.443 M212.079 65.851 C 211.702 66.679,211.774 66.855,212.182 66.103 C 212.372 65.751,212.486 65.422,212.435 65.370 C 212.383 65.319,212.223 65.535,212.079 65.851 M381.943 67.141 C 380.943 68.502,379.494 69.975,377.603 71.552 C 377.107 71.965,376.910 72.199,377.164 72.071 C 378.332 71.483,382.020 67.639,382.979 66.010 C 383.398 65.298,382.885 65.858,381.943 67.141 M232.107 66.329 C 232.090 66.598,232.018 67.003,231.947 67.230 C 231.824 67.620,231.831 67.621,232.074 67.242 C 232.216 67.021,232.288 66.616,232.235 66.341 C 232.138 65.842,232.138 65.842,232.107 66.329 M327.614 70.793 C 327.614 73.393,327.647 74.426,327.686 73.088 C 327.726 71.751,327.726 69.624,327.686 68.361 C 327.646 67.099,327.613 68.194,327.614 70.793 M292.441 67.293 C 292.309 67.671,292.249 67.980,292.308 67.980 C 292.460 67.980,292.884 66.810,292.773 66.699 C 292.722 66.648,292.572 66.915,292.441 67.293 M316.518 69.687 C 316.534 71.162,316.623 73.534,316.715 74.958 C 316.822 76.619,316.841 75.691,316.769 72.369 C 316.707 69.522,316.619 67.150,316.573 67.098 C 316.526 67.047,316.502 68.211,316.518 69.687 M95.311 71.694 C 95.311 74.170,95.344 75.214,95.384 74.013 C 95.425 72.813,95.425 70.787,95.385 69.511 C 95.344 68.236,95.311 69.218,95.311 71.694 M264.957 67.642 C 264.957 67.766,265.102 68.120,265.279 68.430 C 265.455 68.739,265.600 68.891,265.600 68.768 C 265.600 68.644,265.455 68.289,265.279 67.980 C 265.102 67.670,264.957 67.518,264.957 67.642 M296.572 72.300 C 296.485 74.691,296.448 77.102,296.490 77.659 C 296.533 78.216,296.648 76.305,296.747 73.412 C 296.846 70.519,296.883 68.108,296.829 68.054 C 296.774 67.999,296.659 69.910,296.572 72.300 M291.539 69.453 C 291.162 70.280,291.234 70.457,291.642 69.704 C 291.832 69.353,291.946 69.023,291.894 68.972 C 291.843 68.920,291.683 69.137,291.539 69.453 M103.394 70.568 C 103.395 71.435,103.436 71.762,103.484 71.295 C 103.533 70.828,103.532 70.119,103.483 69.719 C 103.433 69.320,103.393 69.702,103.394 70.568 M261.063 78.559 C 261.123 83.697,261.209 87.943,261.255 87.995 C 261.387 88.141,261.295 78.714,261.116 73.720 C 261.018 70.963,260.997 72.840,261.063 78.559 M46.470 75.858 C 46.470 79.510,46.501 81.005,46.539 79.178 C 46.576 77.352,46.576 74.364,46.539 72.538 C 46.501 70.712,46.470 72.206,46.470 75.858 M241.921 71.560 C 241.830 72.724,241.771 74.598,241.789 75.724 C 241.817 77.397,241.858 77.112,242.017 74.170 C 242.236 70.096,242.172 68.346,241.921 71.560 M77.754 74.508 C 77.754 77.046,77.787 78.084,77.827 76.815 C 77.867 75.546,77.867 73.469,77.827 72.200 C 77.787 70.931,77.754 71.970,77.754 74.508 M290.752 71.394 C 290.549 71.912,290.419 72.373,290.464 72.418 C 290.509 72.464,290.715 72.078,290.921 71.563 C 291.127 71.047,291.257 70.586,291.209 70.538 C 291.162 70.490,290.956 70.875,290.752 71.394 M208.101 71.981 C 207.605 72.442,206.845 73.102,206.413 73.447 C 205.981 73.792,205.830 73.979,206.078 73.862 C 206.536 73.644,209.322 71.155,209.116 71.147 C 209.055 71.144,208.598 71.520,208.101 71.981 M266.639 71.638 C 266.723 71.916,266.885 72.243,266.998 72.364 C 267.111 72.485,267.090 72.257,266.951 71.858 C 266.666 71.040,266.403 70.854,266.639 71.638 M15.185 81.486 C 15.185 87.119,15.214 89.423,15.250 86.607 C 15.286 83.790,15.286 79.181,15.250 76.365 C 15.214 73.548,15.185 75.853,15.185 81.486 M121.990 72.634 C 122.120 72.903,122.708 73.621,123.297 74.230 C 124.052 75.012,124.135 75.067,123.577 74.416 C 123.142 73.909,122.554 73.191,122.270 72.819 C 121.968 72.425,121.852 72.348,121.990 72.634 M267.192 72.754 C 267.192 72.997,267.876 74.508,267.986 74.508 C 268.048 74.508,267.942 74.133,267.750 73.675 C 267.413 72.868,267.192 72.503,267.192 72.754 M137.761 73.944 C 137.471 74.253,137.276 74.544,137.328 74.590 C 137.380 74.636,137.658 74.383,137.946 74.028 C 138.591 73.233,138.477 73.182,137.761 73.944 M167.557 75.633 C 167.557 76.933,167.594 77.465,167.639 76.815 C 167.685 76.165,167.685 75.101,167.639 74.451 C 167.594 73.801,167.557 74.333,167.557 75.633 M156.738 74.845 C 156.740 75.588,156.782 75.865,156.832 75.460 C 156.882 75.056,156.881 74.448,156.829 74.110 C 156.778 73.771,156.737 74.102,156.738 74.845 M372.651 74.403 C 372.085 74.675,372.067 74.706,372.538 74.593 C 372.847 74.518,373.197 74.367,373.315 74.257 C 373.606 73.985,373.446 74.020,372.651 74.403 M289.277 74.983 C 289.138 75.381,289.064 75.745,289.112 75.794 C 289.160 75.842,289.313 75.556,289.452 75.158 C 289.590 74.760,289.664 74.395,289.616 74.347 C 289.568 74.299,289.415 74.585,289.277 74.983 M370.737 75.070 C 370.304 75.237,370.101 75.377,370.287 75.381 C 370.473 75.385,370.929 75.249,371.300 75.078 C 372.169 74.680,371.765 74.675,370.737 75.070 M203.039 75.295 C 202.729 75.472,202.577 75.617,202.701 75.617 C 202.825 75.617,203.180 75.472,203.489 75.295 C 203.799 75.119,203.950 74.974,203.827 74.974 C 203.703 74.974,203.348 75.119,203.039 75.295 M268.355 75.645 C 268.487 76.022,268.636 76.290,268.687 76.239 C 268.799 76.127,268.374 74.958,268.222 74.958 C 268.164 74.958,268.223 75.267,268.355 75.645 M201.125 75.979 C 200.234 76.288,200.233 76.289,201.013 76.161 C 201.446 76.090,201.953 75.945,202.138 75.839 C 202.634 75.557,202.155 75.623,201.125 75.979 M367.248 75.858 L 366.348 76.019 367.136 76.036 C 367.569 76.044,368.126 75.965,368.374 75.858 C 368.904 75.630,368.521 75.630,367.248 75.858 M348.755 76.030 C 348.611 76.121,349.472 76.167,350.668 76.132 C 353.912 76.038,354.288 75.930,351.491 75.895 C 350.129 75.879,348.898 75.940,348.755 76.030 M64.241 79.010 C 64.241 80.681,64.277 81.365,64.320 80.529 C 64.363 79.693,64.363 78.326,64.320 77.490 C 64.277 76.654,64.241 77.338,64.241 79.010 M355.712 76.247 C 356.176 76.296,356.936 76.296,357.400 76.247 C 357.864 76.199,357.485 76.159,356.556 76.159 C 355.627 76.159,355.248 76.199,355.712 76.247 M95.534 80.135 C 95.534 82.302,95.568 83.188,95.609 82.105 C 95.651 81.021,95.651 79.249,95.609 78.165 C 95.568 77.082,95.534 77.968,95.534 80.135 M361.002 76.471 C 361.404 76.521,362.062 76.521,362.465 76.471 C 362.867 76.421,362.538 76.380,361.733 76.380 C 360.929 76.380,360.599 76.421,361.002 76.471 M192.009 76.792 C 193.638 76.986,196.370 76.988,197.636 76.798 C 198.207 76.713,196.927 76.646,194.710 76.646 C 192.369 76.645,191.273 76.705,192.009 76.792 M288.389 77.197 C 288.257 77.575,288.197 77.884,288.256 77.884 C 288.408 77.884,288.833 76.715,288.721 76.603 C 288.670 76.552,288.521 76.820,288.389 77.197 M33.190 84.187 C 33.190 88.210,33.221 89.856,33.258 87.845 C 33.295 85.833,33.295 82.541,33.258 80.529 C 33.221 78.517,33.190 80.163,33.190 84.187 M269.009 77.096 C 269.009 77.220,269.153 77.575,269.330 77.884 C 269.507 78.194,269.652 78.346,269.652 78.222 C 269.652 78.098,269.507 77.743,269.330 77.434 C 269.153 77.124,269.009 76.972,269.009 77.096 M129.713 77.370 C 130.053 77.422,130.611 77.422,130.951 77.370 C 131.292 77.318,131.013 77.276,130.332 77.276 C 129.651 77.276,129.373 77.318,129.713 77.370 M104.793 77.940 C 104.878 78.219,105.039 78.546,105.152 78.667 C 105.266 78.788,105.244 78.560,105.105 78.160 C 104.820 77.343,104.557 77.157,104.793 77.940 M241.612 80.360 C 241.612 81.536,241.650 82.017,241.696 81.429 C 241.742 80.841,241.742 79.879,241.696 79.291 C 241.650 78.703,241.612 79.184,241.612 80.360 M156.958 79.572 C 156.960 80.191,157.003 80.418,157.055 80.076 C 157.107 79.734,157.106 79.227,157.052 78.950 C 156.999 78.673,156.956 78.953,156.958 79.572 M269.684 78.672 C 269.684 78.796,269.829 79.150,270.006 79.460 C 270.183 79.769,270.327 79.921,270.327 79.797 C 270.327 79.674,270.183 79.319,270.006 79.010 C 269.829 78.700,269.684 78.548,269.684 78.672 M77.522 82.836 C 77.522 84.508,77.557 85.191,77.601 84.356 C 77.644 83.520,77.644 82.153,77.601 81.317 C 77.557 80.481,77.522 81.165,77.522 82.836 M296.318 83.061 C 296.318 84.733,296.353 85.416,296.397 84.581 C 296.440 83.745,296.440 82.378,296.397 81.542 C 296.353 80.706,296.318 81.390,296.318 83.061 M286.800 81.060 C 286.662 81.458,286.588 81.823,286.636 81.871 C 286.684 81.919,286.837 81.633,286.976 81.236 C 287.114 80.838,287.188 80.473,287.140 80.425 C 287.092 80.377,286.939 80.663,286.800 81.060 M222.186 83.704 C 220.522 85.393,219.661 86.353,220.273 85.836 C 221.651 84.671,225.644 80.525,225.307 80.609 C 225.254 80.622,223.850 82.015,222.186 83.704 M270.691 81.092 C 270.775 81.370,270.937 81.697,271.050 81.818 C 271.163 81.939,271.142 81.711,271.003 81.312 C 270.718 80.494,270.454 80.308,270.691 81.092 M317.019 82.499 C 317.018 83.613,317.056 84.097,317.103 83.575 C 317.150 83.052,317.151 82.141,317.104 81.549 C 317.058 80.957,317.019 81.384,317.019 82.499 M347.837 81.486 C 347.833 82.043,347.904 83.157,347.994 83.962 C 348.150 85.349,348.159 85.367,348.169 84.299 C 348.174 83.680,348.103 82.566,348.011 81.823 C 347.859 80.603,347.843 80.570,347.837 81.486 M167.330 83.624 C 167.331 84.862,167.369 85.340,167.414 84.686 C 167.460 84.032,167.460 83.019,167.413 82.435 C 167.367 81.851,167.330 82.386,167.330 83.624 M157.199 84.074 C 157.198 85.189,157.236 85.673,157.283 85.150 C 157.330 84.628,157.331 83.716,157.284 83.124 C 157.238 82.533,157.199 82.960,157.199 84.074 M271.372 82.611 C 271.453 82.921,271.609 83.270,271.719 83.388 C 272.040 83.732,271.942 83.238,271.564 82.611 L 271.225 82.048 271.372 82.611 M46.238 87.563 C 46.238 89.730,46.272 90.616,46.313 89.533 C 46.354 88.450,46.354 86.677,46.313 85.594 C 46.272 84.510,46.238 85.397,46.238 87.563 M327.385 87.676 C 327.385 89.781,327.419 90.672,327.460 89.657 C 327.502 88.641,327.502 86.919,327.461 85.830 C 327.420 84.740,327.386 85.571,327.385 87.676 M108.920 85.278 C 109.297 85.754,109.784 86.286,110.002 86.459 C 110.220 86.633,109.955 86.244,109.413 85.594 C 108.276 84.231,107.900 83.989,108.920 85.278 M272.819 85.845 C 272.819 86.131,273.469 87.563,273.599 87.563 C 273.669 87.563,273.569 87.189,273.378 86.731 C 273.025 85.886,272.819 85.560,272.819 85.845 M348.284 86.550 C 348.287 87.046,348.333 87.222,348.387 86.942 C 348.440 86.662,348.438 86.256,348.382 86.041 C 348.326 85.826,348.282 86.055,348.284 86.550 M241.393 88.801 C 241.393 90.411,241.429 91.040,241.473 90.199 C 241.516 89.358,241.516 88.041,241.472 87.273 C 241.428 86.504,241.393 87.192,241.393 88.801 M284.324 87.138 C 284.186 87.536,284.112 87.901,284.160 87.949 C 284.208 87.997,284.361 87.711,284.499 87.313 C 284.638 86.915,284.712 86.551,284.664 86.502 C 284.616 86.454,284.463 86.740,284.324 87.138 M64.461 88.914 C 64.461 90.214,64.499 90.746,64.544 90.096 C 64.590 89.446,64.590 88.382,64.544 87.732 C 64.499 87.082,64.461 87.614,64.461 88.914 M157.391 88.614 C 157.365 89.749,157.286 90.863,157.214 91.090 C 157.095 91.471,157.104 91.473,157.335 91.113 C 157.489 90.875,157.557 89.915,157.512 88.637 L 157.437 86.550 157.391 88.614 M137.869 88.063 L 136.972 89.026 137.882 88.182 C 138.812 87.320,139.210 87.160,139.413 87.569 C 139.476 87.696,139.501 87.671,139.469 87.513 C 139.349 86.920,138.736 87.131,137.869 88.063 M167.104 89.364 C 167.104 90.540,167.142 91.021,167.189 90.433 C 167.235 89.845,167.235 88.883,167.189 88.295 C 167.142 87.707,167.104 88.188,167.104 89.364 M273.736 87.901 C 273.736 88.025,273.880 88.379,274.057 88.689 C 274.234 88.998,274.379 89.150,274.379 89.026 C 274.379 88.903,274.234 88.548,274.057 88.239 C 273.880 87.929,273.736 87.777,273.736 87.901 M348.528 90.715 C 348.528 91.643,348.568 92.023,348.616 91.559 C 348.665 91.095,348.665 90.335,348.616 89.871 C 348.568 89.406,348.528 89.786,348.528 90.715 M213.618 89.702 C 213.309 89.879,213.157 90.023,213.281 90.023 C 213.405 90.023,213.759 89.879,214.069 89.702 C 214.378 89.525,214.530 89.380,214.406 89.380 C 214.282 89.380,213.928 89.525,213.618 89.702 M211.930 90.385 C 211.367 90.656,211.349 90.687,211.818 90.573 C 212.455 90.417,213.172 90.051,212.831 90.056 C 212.707 90.058,212.302 90.206,211.930 90.385 M282.760 91.062 C 282.383 91.890,282.455 92.066,282.863 91.314 C 283.053 90.962,283.167 90.633,283.116 90.581 C 283.064 90.530,282.904 90.746,282.760 91.062 M77.448 90.971 C 77.440 91.174,77.611 91.533,77.828 91.770 C 78.044 92.006,78.150 92.088,78.062 91.951 C 77.974 91.815,77.803 91.456,77.682 91.153 C 77.543 90.805,77.457 90.738,77.448 90.971 M261.057 91.339 C 260.957 91.804,260.709 92.152,260.387 92.282 C 260.058 92.414,260.004 92.492,260.235 92.501 C 260.771 92.523,261.387 91.725,261.296 91.127 C 261.227 90.677,261.193 90.707,261.057 91.339 M209.567 91.165 C 209.103 91.313,209.083 91.348,209.454 91.364 C 209.702 91.375,210.056 91.285,210.242 91.165 C 210.636 90.910,210.363 90.910,209.567 91.165 M206.078 91.963 L 204.727 92.261 205.965 92.135 C 206.646 92.065,207.406 91.926,207.653 91.826 C 208.311 91.560,207.637 91.618,206.078 91.963 M316.520 92.073 C 316.228 92.316,316.094 92.515,316.222 92.515 C 316.450 92.515,317.164 91.906,317.164 91.712 C 317.164 91.558,317.084 91.603,316.520 92.073 M19.527 92.680 C 20.053 92.728,20.914 92.728,21.441 92.680 C 21.967 92.633,21.536 92.594,20.484 92.594 C 19.432 92.594,19.001 92.633,19.527 92.680 M29.207 92.678 C 29.609 92.728,30.267 92.728,30.670 92.678 C 31.072 92.628,30.743 92.588,29.938 92.588 C 29.133 92.588,28.804 92.628,29.207 92.678 M80.299 92.678 C 80.698 92.728,81.408 92.728,81.875 92.680 C 82.342 92.631,82.015 92.590,81.148 92.589 C 80.281 92.588,79.899 92.628,80.299 92.678 M92.238 92.679 C 92.643 92.729,93.250 92.728,93.589 92.676 C 93.927 92.625,93.596 92.584,92.853 92.585 C 92.110 92.586,91.834 92.629,92.238 92.679 M151.660 92.678 C 152.062 92.728,152.721 92.728,153.123 92.678 C 153.526 92.628,153.196 92.588,152.392 92.588 C 151.587 92.588,151.258 92.628,151.660 92.678 M176.365 92.773 C 179.074 92.967,199.281 92.973,200.558 92.780 C 201.113 92.696,195.441 92.628,187.953 92.628 C 180.465 92.628,175.250 92.693,176.365 92.773 M337.198 92.764 C 339.641 92.971,347.957 92.996,348.078 92.797 C 348.135 92.704,345.330 92.626,341.845 92.625 C 338.360 92.623,336.269 92.685,337.198 92.764 M23.917 92.907 C 24.752 92.951,26.120 92.951,26.956 92.907 C 27.791 92.864,27.107 92.829,25.436 92.829 C 23.765 92.829,23.081 92.864,23.917 92.907 M84.918 92.908 C 86.125 92.949,88.101 92.949,89.308 92.908 C 90.515 92.868,89.527 92.835,87.113 92.835 C 84.699 92.835,83.711 92.868,84.918 92.908 M120.090 92.966 C 120.338 93.072,120.692 93.159,120.878 93.159 C 121.091 93.159,121.049 93.088,120.765 92.966 C 120.518 92.859,120.163 92.772,119.977 92.772 C 119.765 92.772,119.806 92.844,120.090 92.966 M143.331 92.909 C 144.724 92.948,147.003 92.948,148.396 92.909 C 149.789 92.869,148.649 92.837,145.864 92.837 C 143.078 92.837,141.939 92.869,143.331 92.909 M279.572 93.416 L 277.659 93.557 279.503 93.599 C 280.537 93.623,281.408 93.542,281.486 93.416 C 281.562 93.292,281.593 93.210,281.555 93.233 C 281.517 93.256,280.625 93.338,279.572 93.416 M123.635 93.577 C 123.976 93.629,124.533 93.629,124.873 93.577 C 125.214 93.526,124.935 93.483,124.254 93.483 C 123.573 93.483,123.295 93.526,123.635 93.577 M126.677 93.575 C 126.957 93.629,127.362 93.627,127.577 93.571 C 127.792 93.514,127.563 93.470,127.068 93.473 C 126.573 93.475,126.397 93.521,126.677 93.575 M126.956 133.026 L 124.142 133.173 127.997 133.193 C 132.196 133.214,132.567 133.303,133.270 134.454 C 133.747 135.238,133.829 135.180,133.493 134.297 C 133.029 133.077,131.535 132.786,126.956 133.026 M122.176 133.421 C 122.581 133.472,123.189 133.471,123.527 133.419 C 123.865 133.368,123.534 133.327,122.791 133.328 C 122.048 133.329,121.772 133.371,122.176 133.421 M114.800 133.732 C 110.590 134.032,110.400 134.124,114.237 134.006 C 116.218 133.945,118.447 133.816,119.190 133.719 L 120.540 133.542 118.965 133.545 C 118.098 133.547,116.224 133.631,114.800 133.732 M83.174 133.856 C 82.100 134.157,82.090 134.211,82.272 138.769 C 82.366 141.124,82.521 143.860,82.616 144.851 C 82.712 145.845,82.724 144.786,82.644 142.487 C 82.564 140.197,82.499 137.411,82.499 136.297 L 82.499 134.271 89.252 134.154 C 94.137 134.069,94.978 134.022,92.290 133.984 C 90.248 133.955,87.462 133.886,86.100 133.830 C 84.738 133.775,83.421 133.786,83.174 133.856 M103.500 134.326 C 104.527 134.368,106.148 134.368,107.101 134.326 C 108.055 134.284,107.214 134.250,105.234 134.250 C 103.253 134.250,102.472 134.285,103.500 134.326 M133.827 141.491 C 133.877 142.861,134.024 144.229,134.152 144.529 C 134.333 144.953,134.353 144.798,134.240 143.838 C 134.160 143.157,134.014 141.790,133.915 140.799 C 133.750 139.142,133.743 139.197,133.827 141.491 M134.769 148.545 L 134.898 150.664 130.308 150.549 C 127.739 150.484,126.461 150.507,127.406 150.600 C 129.854 150.843,134.476 150.925,134.790 150.731 C 135.102 150.538,135.128 148.659,134.836 147.327 C 134.700 146.704,134.679 147.080,134.769 148.545 M82.993 150.929 C 83.061 152.662,83.198 155.194,83.297 156.556 C 83.434 158.430,83.450 157.993,83.362 154.755 C 83.298 152.403,83.161 149.871,83.057 149.128 C 82.930 148.214,82.909 148.797,82.993 150.929 M106.644 149.629 C 107.049 149.679,107.657 149.678,107.995 149.626 C 108.333 149.575,108.002 149.534,107.259 149.535 C 106.517 149.536,106.240 149.578,106.644 149.629 M113.731 149.629 C 114.195 149.678,114.955 149.678,115.419 149.629 C 115.884 149.581,115.504 149.541,114.575 149.541 C 113.647 149.541,113.267 149.581,113.731 149.629 M104.511 150.197 C 103.266 151.559,102.620 156.489,103.502 157.907 C 103.736 158.284,103.753 158.174,103.607 157.231 C 103.102 153.974,103.765 150.751,105.087 150.033 C 105.455 149.833,105.548 149.705,105.329 149.700 C 105.134 149.695,104.766 149.918,104.511 150.197 M118.627 149.904 C 120.901 150.183,124.926 150.369,124.077 150.155 C 123.670 150.053,121.948 149.914,120.250 149.846 C 118.205 149.765,117.657 149.784,118.627 149.904 M160.893 154.356 C 161.298 154.406,161.906 154.405,162.244 154.353 C 162.582 154.302,162.251 154.261,161.508 154.262 C 160.765 154.263,160.489 154.305,160.893 154.356 M165.391 154.355 C 165.793 154.405,166.452 154.405,166.854 154.355 C 167.257 154.305,166.927 154.265,166.123 154.265 C 165.318 154.265,164.989 154.305,165.391 154.355 M157.231 154.750 C 155.759 155.129,156.349 155.134,158.469 154.762 C 159.705 154.545,159.916 154.465,159.257 154.463 C 158.762 154.462,157.850 154.591,157.231 154.750 M169.162 154.767 C 171.192 155.151,171.721 155.138,170.287 154.739 C 169.668 154.567,168.807 154.436,168.374 154.447 C 167.811 154.462,168.037 154.554,169.162 154.767 M267.777 154.651 C 267.047 154.766,266.389 154.925,266.314 155.005 C 266.240 155.085,266.679 155.078,267.291 154.989 C 268.603 154.798,272.836 154.782,274.084 154.963 C 274.897 155.081,274.911 155.074,274.282 154.865 C 273.300 154.539,269.321 154.408,267.777 154.651 M298.616 154.653 C 297.885 154.767,297.227 154.925,297.153 155.005 C 297.078 155.085,297.524 155.077,298.143 154.987 C 299.391 154.805,303.734 154.798,304.991 154.976 C 305.737 155.081,305.749 155.074,305.155 154.880 C 304.180 154.560,300.112 154.419,298.616 154.653 M211.300 155.030 C 211.776 155.089,212.070 155.274,212.165 155.573 C 212.244 155.823,212.359 155.978,212.419 155.917 C 212.757 155.579,211.976 154.870,211.303 154.904 L 210.580 154.940 211.300 155.030 M153.855 155.691 C 152.988 156.007,152.178 156.371,152.054 156.500 C 151.899 156.662,151.969 156.678,152.279 156.552 C 152.527 156.452,153.438 156.123,154.305 155.822 C 155.172 155.520,155.923 155.233,155.974 155.183 C 156.220 154.947,155.281 155.172,153.855 155.691 M171.750 155.282 C 171.936 155.397,172.442 155.558,172.876 155.640 C 173.399 155.738,173.550 155.718,173.326 155.579 C 173.140 155.464,172.634 155.303,172.200 155.221 C 171.677 155.123,171.526 155.143,171.750 155.282 M207.695 155.476 C 206.728 155.662,205.982 155.860,206.038 155.916 C 206.159 156.037,210.028 155.382,210.199 155.211 C 210.383 155.027,209.607 155.109,207.695 155.476 M249.310 155.346 C 248.058 155.639,247.972 155.852,249.184 155.656 C 250.224 155.488,251.232 155.090,250.535 155.122 C 250.349 155.131,249.798 155.232,249.310 155.346 M252.931 155.536 C 253.009 155.842,253.146 156.855,253.235 157.787 L 253.398 159.482 253.419 157.907 C 253.432 156.952,253.312 156.065,253.115 155.656 C 252.855 155.115,252.818 155.091,252.931 155.536 M264.747 155.351 C 264.331 155.471,264.043 155.620,264.106 155.683 C 264.235 155.812,266.066 155.358,266.066 155.197 C 266.066 155.048,265.618 155.101,264.747 155.351 M275.858 155.430 C 276.618 155.788,277.477 155.904,276.871 155.567 C 276.685 155.463,276.230 155.319,275.858 155.245 L 275.183 155.111 275.858 155.430 M295.217 155.525 C 293.262 156.247,292.853 156.428,292.853 156.575 C 292.853 156.653,293.030 156.640,293.247 156.546 C 293.464 156.453,294.401 156.093,295.329 155.747 C 296.258 155.401,296.866 155.116,296.680 155.114 C 296.494 155.111,295.836 155.296,295.217 155.525 M306.246 155.285 C 306.938 155.592,308.342 155.832,307.935 155.573 C 307.749 155.456,307.192 155.297,306.697 155.222 C 306.082 155.128,305.939 155.148,306.246 155.285 M174.676 156.258 C 175.234 156.531,176.348 157.103,177.153 157.529 C 177.957 157.956,178.514 158.197,178.391 158.066 C 178.057 157.714,174.878 156.061,174.226 155.901 C 173.917 155.825,174.119 155.986,174.676 156.258 M246.145 156.174 C 245.402 156.372,244.949 156.568,245.137 156.608 C 245.325 156.649,246.085 156.486,246.825 156.247 C 248.456 155.721,248.017 155.674,246.145 156.174 M262.208 156.418 C 260.642 157.212,258.821 158.396,256.612 160.057 C 255.684 160.755,254.620 161.489,254.249 161.689 C 253.877 161.889,253.717 162.057,253.893 162.062 C 254.068 162.067,254.929 161.547,255.806 160.906 C 259.032 158.549,261.012 157.243,262.452 156.522 C 263.264 156.115,263.827 155.781,263.703 155.778 C 263.579 155.776,262.907 156.064,262.208 156.418 M309.363 156.316 C 309.962 156.623,310.598 156.994,310.775 157.141 C 310.952 157.288,311.150 157.355,311.214 157.291 C 311.365 157.140,309.573 156.096,308.835 155.904 C 308.526 155.824,308.763 156.009,309.363 156.316 M203.376 156.343 L 202.026 156.644 203.357 156.523 C 204.706 156.400,206.155 156.010,205.177 156.032 C 204.930 156.038,204.119 156.178,203.376 156.343 M223.559 156.260 C 221.914 156.627,222.664 156.692,224.669 156.356 C 226.128 156.112,226.330 156.039,225.549 156.040 C 224.992 156.041,224.096 156.140,223.559 156.260 M229.060 156.315 C 229.996 156.722,230.045 156.930,229.815 159.509 C 229.560 162.371,229.576 164.158,229.840 162.183 C 230.442 157.677,230.163 155.977,228.826 156.002 C 228.467 156.009,228.520 156.079,229.060 156.315 M277.884 156.218 C 277.961 156.342,278.133 156.443,278.268 156.443 C 279.288 156.443,282.535 159.490,283.379 161.239 C 283.666 161.833,283.948 162.272,284.007 162.213 C 284.246 161.974,283.240 160.349,282.065 159.075 C 280.572 157.459,277.246 155.185,277.884 156.218 M212.616 157.689 C 212.807 159.738,213.119 160.941,213.497 161.086 C 213.779 161.194,215.644 160.185,215.644 159.924 C 215.644 159.804,214.699 160.297,214.006 160.779 C 213.430 161.180,213.268 160.811,212.958 158.393 C 212.644 155.951,212.410 155.466,212.616 157.689 M150.337 157.303 C 147.472 158.985,144.726 161.547,142.681 164.443 C 141.683 165.858,139.887 169.450,140.081 169.644 C 140.161 169.724,140.291 169.597,140.372 169.363 C 141.896 164.906,146.041 160.046,150.422 157.580 C 151.134 157.179,151.716 156.810,151.716 156.760 C 151.716 156.566,151.340 156.714,150.337 157.303 M200.450 156.776 C 200.326 156.816,199.186 156.976,197.917 157.132 C 196.647 157.289,195.653 157.462,195.708 157.516 C 195.848 157.657,200.581 157.101,201.125 156.880 L 201.576 156.697 201.125 156.701 C 200.878 156.703,200.574 156.736,200.450 156.776 M221.047 157.100 C 220.490 157.325,219.741 157.627,219.384 157.771 C 219.026 157.914,218.786 158.084,218.850 158.148 C 218.914 158.212,219.409 158.069,219.950 157.830 C 220.491 157.590,221.289 157.237,221.722 157.046 C 222.825 156.558,222.277 156.602,221.047 157.100 M241.949 156.896 C 239.216 157.158,237.658 157.373,237.761 157.476 C 237.885 157.599,244.490 156.936,244.641 156.784 C 244.775 156.650,244.320 156.669,241.949 156.896 M291.097 157.374 C 290.440 157.757,289.960 158.127,290.030 158.197 C 290.100 158.268,290.456 158.104,290.821 157.834 C 291.186 157.565,291.570 157.344,291.675 157.344 C 291.781 157.344,292.063 157.195,292.304 157.013 C 293.070 156.433,292.332 156.654,291.097 157.374 M313.066 158.848 C 314.512 160.271,314.839 160.783,315.988 163.421 C 316.123 163.731,316.240 163.832,316.248 163.647 C 316.300 162.483,313.342 158.294,311.938 157.543 C 311.701 157.416,312.209 158.003,313.066 158.848 M194.598 158.099 C 194.342 158.490,194.308 158.772,194.466 159.169 C 194.663 159.661,194.683 159.635,194.696 158.874 C 194.705 158.330,194.846 157.962,195.104 157.812 C 195.321 157.686,195.374 157.580,195.222 157.576 C 195.070 157.572,194.789 157.808,194.598 158.099 M236.128 157.729 C 235.558 157.938,235.002 158.520,235.012 158.898 C 235.017 159.119,235.151 159.018,235.357 158.638 C 235.541 158.298,235.867 158.018,236.079 158.016 C 236.292 158.014,236.618 157.914,236.804 157.794 C 237.196 157.540,236.757 157.498,236.128 157.729 M179.516 158.951 C 182.425 161.376,184.610 163.841,185.923 166.179 C 186.323 166.891,186.700 167.473,186.762 167.473 C 186.967 167.473,185.446 164.906,184.535 163.712 C 183.388 162.209,180.931 159.800,179.629 158.900 L 178.616 158.201 179.516 158.951 M217.783 158.603 C 217.411 158.799,216.820 159.109,216.468 159.293 C 216.116 159.477,215.877 159.678,215.938 159.739 C 216.050 159.850,218.571 158.506,218.571 158.335 C 218.571 158.198,218.514 158.217,217.783 158.603 M288.342 159.223 C 287.656 159.762,286.542 160.776,285.866 161.476 C 285.190 162.177,284.510 162.702,284.356 162.643 C 284.026 162.517,283.973 162.882,284.292 163.080 C 284.412 163.154,285.299 162.417,286.262 161.442 C 287.225 160.468,288.419 159.353,288.914 158.965 C 289.409 158.577,289.764 158.256,289.702 158.252 C 289.640 158.248,289.028 158.685,288.342 159.223 M104.015 158.981 C 104.753 160.612,109.583 161.038,118.965 160.301 C 120.519 160.178,118.754 160.129,113.257 160.141 L 105.298 160.158 104.515 159.257 C 103.860 158.504,103.779 158.459,104.015 158.981 M235.155 161.171 C 235.228 162.223,235.371 163.540,235.471 164.097 C 235.588 164.745,235.608 164.270,235.527 162.778 C 235.458 161.495,235.315 160.179,235.211 159.852 C 235.095 159.491,235.073 160.009,235.155 161.171 M122.967 159.986 C 123.559 160.032,124.470 160.032,124.993 159.984 C 125.515 159.937,125.031 159.899,123.917 159.900 C 122.802 159.901,122.375 159.939,122.967 159.986 M130.249 160.043 C 130.346 160.227,130.600 160.987,130.813 161.731 C 131.026 162.475,131.207 162.881,131.215 162.634 C 131.238 161.940,130.826 160.636,130.430 160.147 C 130.234 159.905,130.153 159.858,130.249 160.043 M83.596 162.409 C 83.596 163.770,83.633 164.298,83.678 163.582 C 83.723 162.866,83.723 161.751,83.677 161.106 C 83.632 160.461,83.595 161.047,83.596 162.409 M194.853 160.833 C 195.108 162.340,195.397 162.997,195.249 161.733 C 195.177 161.114,195.024 160.456,194.909 160.270 C 194.774 160.050,194.754 160.246,194.853 160.833 M253.513 160.945 C 253.513 161.379,253.559 161.556,253.616 161.339 C 253.673 161.123,253.673 160.768,253.616 160.551 C 253.559 160.335,253.513 160.512,253.513 160.945 M131.303 169.612 L 131.304 175.689 131.520 172.241 C 131.658 170.034,131.658 167.846,131.519 166.163 C 131.321 163.756,131.302 164.048,131.303 169.612 M229.458 168.878 C 229.470 171.817,229.540 174.045,229.613 173.830 C 229.687 173.615,229.677 171.210,229.591 168.486 L 229.436 163.534 229.458 168.878 M195.647 164.547 C 195.645 164.856,195.784 165.920,195.954 166.911 L 196.264 168.711 196.143 166.968 C 196.018 165.160,195.652 163.374,195.647 164.547 M316.587 171.300 C 316.587 174.705,316.618 176.097,316.657 174.395 C 316.695 172.693,316.695 169.907,316.657 168.205 C 316.618 166.503,316.587 167.895,316.587 171.300 M235.815 166.911 C 235.868 167.653,235.969 176.374,236.041 186.290 C 236.112 196.206,236.250 204.447,236.347 204.604 C 236.444 204.760,237.016 204.925,237.620 204.970 L 238.717 205.051 237.720 204.838 C 237.172 204.720,236.646 204.546,236.552 204.451 C 236.458 204.355,236.331 196.173,236.271 186.269 C 236.210 176.169,236.065 167.668,235.941 166.911 L 235.720 165.560 235.815 166.911 M186.944 168.149 C 187.034 168.458,187.209 168.813,187.333 168.936 C 187.483 169.086,187.503 168.974,187.394 168.599 C 187.305 168.289,187.130 167.935,187.006 167.811 C 186.856 167.661,186.836 167.773,186.944 168.149 M196.405 170.826 C 196.463 171.618,196.511 179.382,196.511 188.078 C 196.511 205.745,196.414 204.709,198.087 204.954 C 198.854 205.066,198.850 205.060,197.918 204.711 C 196.747 204.272,196.886 206.523,196.842 187.282 C 196.816 176.180,196.726 170.908,196.552 170.287 C 196.312 169.432,196.305 169.459,196.405 170.826 M161.460 170.036 C 159.479 170.686,157.249 172.458,156.441 174.025 C 156.109 174.670,156.330 174.450,157.351 173.122 C 161.226 168.078,168.807 169.243,171.804 175.342 C 172.071 175.885,172.153 175.960,172.062 175.577 C 171.137 171.711,165.437 168.733,161.460 170.036 M187.749 169.949 C 187.751 170.135,187.896 170.591,188.071 170.962 L 188.389 171.638 188.255 170.962 C 188.088 170.117,187.744 169.429,187.749 169.949 M259.764 170.026 C 257.996 170.725,257.776 170.832,257.639 171.052 C 257.561 171.179,258.064 171.023,258.756 170.706 C 262.300 169.083,265.687 170.236,266.791 173.440 C 267.091 174.309,267.149 174.385,267.048 173.776 C 266.548 170.749,262.806 168.822,259.764 170.026 M291.277 169.869 C 288.937 170.625,286.188 173.173,285.596 175.135 C 285.168 176.552,285.013 184.869,285.187 197.158 C 285.282 203.878,285.266 204.234,284.863 204.529 C 284.228 204.994,268.602 204.985,267.966 204.520 C 267.541 204.209,267.531 203.835,267.586 190.395 C 267.617 182.802,267.566 176.197,267.474 175.717 C 267.381 175.238,267.304 181.431,267.304 189.481 C 267.304 203.558,267.321 204.135,267.733 204.591 C 268.315 205.234,284.437 205.345,285.071 204.711 C 285.531 204.251,285.487 205.760,285.514 189.645 L 285.537 175.464 286.207 174.256 C 288.554 170.018,293.957 168.613,296.836 171.492 C 297.410 172.066,297.763 172.316,297.619 172.048 C 296.696 170.324,293.388 169.187,291.277 169.869 M139.486 171.225 C 139.285 171.932,139.163 172.553,139.215 172.604 C 139.267 172.656,139.477 172.123,139.681 171.420 C 139.886 170.717,140.008 170.096,139.952 170.040 C 139.897 169.985,139.687 170.518,139.486 171.225 M256.401 171.853 C 255.450 172.554,254.944 173.098,254.599 173.790 C 254.391 174.205,254.467 174.165,254.911 173.622 C 255.233 173.228,255.925 172.546,256.448 172.107 C 257.541 171.191,257.511 171.034,256.401 171.853 M188.556 172.759 C 188.765 174.399,189.111 175.313,188.961 173.830 C 188.895 173.179,188.745 172.419,188.627 172.142 C 188.473 171.779,188.453 171.952,188.556 172.759 M297.935 173.213 C 298.226 174.424,298.500 174.866,298.355 173.889 C 298.281 173.393,298.120 172.887,297.997 172.763 C 297.849 172.614,297.828 172.766,297.935 173.213 M138.808 173.606 C 138.603 174.422,138.359 176.828,138.493 176.702 C 138.653 176.553,139.151 173.291,139.032 173.172 C 138.981 173.121,138.880 173.317,138.808 173.606 M228.700 174.799 C 228.237 175.073,227.421 175.109,224.086 175.004 C 221.857 174.934,219.761 174.959,219.427 175.058 C 219.078 175.162,220.912 175.239,223.751 175.239 C 228.146 175.239,228.725 175.196,229.077 174.845 C 229.554 174.370,229.449 174.357,228.700 174.799 M254.048 174.807 C 253.973 175.003,253.911 181.781,253.911 189.870 L 253.911 204.577 253.292 204.803 C 252.952 204.927,252.831 205.037,253.024 205.047 C 254.304 205.112,254.249 205.812,254.249 189.438 C 254.249 181.196,254.234 174.452,254.217 174.452 C 254.199 174.452,254.123 174.612,254.048 174.807 M155.632 175.485 C 155.446 175.930,155.327 176.391,155.366 176.509 C 155.406 176.627,155.609 176.263,155.817 175.700 C 156.266 174.489,156.120 174.318,155.632 175.485 M189.135 175.802 C 189.135 176.235,189.181 176.412,189.238 176.196 C 189.295 175.979,189.295 175.625,189.238 175.408 C 189.181 175.191,189.135 175.369,189.135 175.802 M83.602 178.728 C 83.602 180.647,83.637 181.432,83.679 180.473 C 83.721 179.513,83.721 177.943,83.679 176.984 C 83.637 176.024,83.602 176.809,83.602 178.728 M217.276 175.584 C 216.497 175.897,216.676 176.035,217.501 175.757 C 217.904 175.621,218.275 175.474,218.327 175.431 C 218.510 175.276,217.775 175.383,217.276 175.584 M298.593 187.507 C 298.593 194.254,298.655 198.559,298.731 197.074 C 298.917 193.443,298.923 178.030,298.740 176.477 C 298.659 175.796,298.593 180.760,298.593 187.507 M216.207 176.199 C 215.750 176.535,215.243 177.281,215.100 177.828 C 214.971 178.320,215.000 178.305,215.326 177.715 C 215.531 177.344,215.907 176.812,216.161 176.533 C 216.619 176.031,216.640 175.881,216.207 176.199 M172.303 176.702 C 172.377 177.012,172.534 177.721,172.651 178.278 C 172.854 179.243,172.858 179.228,172.749 177.943 C 172.686 177.202,172.529 176.493,172.401 176.368 C 172.242 176.211,172.211 176.316,172.303 176.702 M130.923 177.040 C 130.826 177.411,130.578 177.907,130.371 178.142 C 130.064 178.490,130.057 178.549,130.332 178.463 C 130.760 178.329,131.289 177.263,131.181 176.752 C 131.126 176.492,131.041 176.587,130.923 177.040 M189.398 179.966 C 189.398 181.823,189.433 182.553,189.475 181.588 C 189.518 180.623,189.517 179.103,189.475 178.211 C 189.432 177.320,189.398 178.109,189.398 179.966 M154.971 177.407 C 154.756 178.084,154.791 182.118,155.017 182.711 C 155.133 183.014,155.205 181.992,155.205 180.066 C 155.205 176.709,155.203 176.677,154.971 177.407 M138.300 180.529 C 138.300 182.324,138.335 183.059,138.378 182.161 C 138.420 181.263,138.420 179.795,138.378 178.897 C 138.335 177.999,138.300 178.734,138.300 180.529 M108.779 177.771 C 110.357 177.810,112.940 177.810,114.519 177.771 C 116.097 177.732,114.806 177.701,111.649 177.701 C 108.492 177.701,107.200 177.732,108.779 177.771 M103.943 178.487 L 103.208 179.147 103.254 184.284 C 103.304 189.823,103.525 195.031,103.702 194.854 C 103.762 194.793,103.696 191.454,103.554 187.434 C 103.303 180.342,103.402 178.532,104.040 178.500 C 104.624 178.471,105.806 177.846,105.293 177.838 C 104.920 177.832,104.389 178.087,103.943 178.487 M123.692 178.161 C 128.167 178.519,129.003 178.542,127.871 178.275 C 127.446 178.175,125.471 178.039,123.482 177.974 L 119.865 177.855 123.692 178.161 M214.661 179.010 C 214.478 179.692,214.519 196.779,214.707 198.199 C 214.789 198.818,214.856 194.640,214.856 188.914 C 214.856 183.188,214.843 178.504,214.826 178.503 C 214.810 178.503,214.735 178.731,214.661 179.010 M316.360 184.356 C 316.360 187.141,316.392 188.281,316.431 186.888 C 316.471 185.495,316.471 183.216,316.431 181.823 C 316.392 180.431,316.360 181.570,316.360 184.356 M172.560 182.100 C 172.477 182.725,172.345 183.403,172.267 183.607 C 172.175 183.846,172.213 183.924,172.371 183.826 C 172.626 183.669,173.017 181.271,172.820 181.074 C 172.760 181.014,172.643 181.475,172.560 182.100 M155.447 183.905 C 155.842 185.465,157.677 188.095,158.771 188.668 C 159.038 188.808,158.669 188.302,157.951 187.544 C 157.225 186.777,156.347 185.538,155.975 184.754 C 155.607 183.978,155.369 183.596,155.447 183.905 M83.188 189.139 C 82.783 204.024,82.818 204.570,84.187 204.945 C 84.645 205.071,84.607 205.009,83.982 204.613 L 83.214 204.127 83.364 193.904 C 83.446 188.281,83.474 183.680,83.425 183.680 C 83.377 183.680,83.270 186.137,83.188 189.139 M189.135 184.356 C 189.135 184.789,189.181 184.966,189.238 184.750 C 189.295 184.533,189.295 184.178,189.238 183.962 C 189.181 183.745,189.135 183.922,189.135 184.356 M171.678 184.996 C 171.265 186.029,169.045 188.507,168.091 189.000 C 167.728 189.187,167.490 189.399,167.561 189.470 C 167.775 189.685,169.482 188.386,170.423 187.293 C 171.318 186.253,172.343 184.423,172.142 184.222 C 172.081 184.161,171.872 184.510,171.678 184.996 M138.477 184.918 C 138.478 185.290,138.615 186.100,138.782 186.719 L 139.086 187.845 138.963 186.650 C 138.895 185.993,138.758 185.183,138.657 184.849 L 138.474 184.243 138.477 184.918 M188.656 186.578 C 188.502 187.360,188.425 188.050,188.485 188.110 C 188.634 188.259,189.138 185.761,189.027 185.425 C 188.977 185.276,188.810 185.795,188.656 186.578 M139.129 188.113 C 139.102 188.515,140.249 191.638,140.518 191.896 C 140.680 192.051,140.697 191.981,140.575 191.671 C 140.477 191.424,140.159 190.563,139.868 189.758 C 139.185 187.871,139.150 187.794,139.129 188.113 M187.861 189.549 C 187.403 191.091,187.571 191.259,188.070 189.758 C 188.281 189.123,188.399 188.549,188.333 188.483 C 188.267 188.417,188.054 188.897,187.861 189.549 M159.595 189.147 C 159.781 189.333,160.186 189.559,160.495 189.649 C 161.210 189.859,161.049 189.697,160.045 189.199 C 159.437 188.898,159.334 188.886,159.595 189.147 M166.235 189.782 C 165.424 190.034,162.904 190.095,161.830 189.888 C 161.165 189.759,161.119 189.776,161.499 190.011 C 162.148 190.412,165.606 190.350,166.573 189.920 C 167.449 189.530,167.274 189.459,166.235 189.782 M187.063 191.655 C 186.729 192.535,186.795 192.673,187.196 191.933 C 187.386 191.581,187.487 191.238,187.418 191.170 C 187.350 191.102,187.190 191.320,187.063 191.655 M316.488 197.733 L 316.488 204.132 315.895 204.598 C 315.569 204.855,315.417 205.065,315.558 205.065 C 316.629 205.065,316.714 204.527,316.714 197.749 C 316.714 194.221,316.663 191.334,316.601 191.334 C 316.539 191.334,316.488 194.213,316.488 197.733 M140.694 192.357 C 140.686 192.614,142.429 195.509,143.172 196.473 C 145.205 199.113,151.309 203.972,151.877 203.403 C 151.945 203.336,151.708 203.151,151.352 202.992 C 148.713 201.815,144.059 197.681,142.528 195.155 C 142.117 194.477,141.538 193.517,141.241 193.022 C 140.944 192.527,140.697 192.228,140.694 192.357 M186.269 193.360 C 186.077 193.731,185.970 194.035,186.032 194.035 C 186.094 194.035,186.302 193.731,186.494 193.360 C 186.686 192.988,186.793 192.684,186.731 192.684 C 186.669 192.684,186.461 192.988,186.269 193.360 M184.159 196.587 C 183.234 197.785,181.225 199.785,179.516 201.207 L 178.616 201.957 179.629 201.258 C 180.931 200.360,183.600 197.730,184.547 196.411 C 185.564 194.996,185.291 195.120,184.159 196.587 M103.842 196.961 C 103.842 197.766,103.883 198.095,103.933 197.693 C 103.983 197.290,103.983 196.632,103.933 196.230 C 103.883 195.827,103.842 196.156,103.842 196.961 M104.110 201.748 L 104.193 204.622 103.597 205.012 C 102.954 205.433,92.332 205.588,87.226 205.251 C 85.588 205.143,85.189 205.162,85.763 205.323 C 86.196 205.445,90.056 205.601,94.340 205.670 C 104.945 205.842,104.629 205.970,104.262 201.642 L 104.028 198.875 104.110 201.748 M215.015 202.413 C 214.971 204.302,214.946 204.388,214.350 204.711 C 214.010 204.896,213.846 205.051,213.987 205.056 C 214.887 205.087,215.216 204.316,215.138 202.364 L 215.061 200.450 215.015 202.413 M176.027 203.192 C 174.727 203.869,173.917 204.354,174.226 204.270 C 174.848 204.103,178.041 202.451,178.379 202.121 C 178.701 201.809,178.583 201.863,176.027 203.192 M298.595 203.489 C 298.712 204.313,299.395 205.065,300.025 205.064 C 300.247 205.063,300.106 204.888,299.671 204.622 C 299.243 204.361,298.853 203.879,298.715 203.441 L 298.482 202.701 298.595 203.489 M152.290 203.689 C 152.408 203.799,152.757 203.955,153.067 204.036 L 153.630 204.183 153.067 203.844 C 152.440 203.466,151.947 203.368,152.290 203.689 M153.742 204.235 C 153.742 204.416,156.005 205.128,156.143 204.990 C 156.209 204.924,155.842 204.756,155.327 204.617 C 154.811 204.478,154.244 204.309,154.066 204.240 C 153.888 204.172,153.742 204.169,153.742 204.235 M172.538 204.550 C 172.290 204.609,171.986 204.757,171.863 204.877 C 171.606 205.127,172.773 204.899,173.326 204.591 C 173.719 204.372,173.357 204.353,172.538 204.550 M157.456 205.418 C 158.075 205.590,158.936 205.722,159.370 205.710 C 159.932 205.696,159.706 205.604,158.582 205.391 C 156.552 205.006,156.022 205.019,157.456 205.418 M169.049 205.421 L 167.586 205.723 168.952 205.627 C 170.256 205.535,172.032 205.075,170.962 205.106 C 170.715 205.114,169.854 205.255,169.049 205.421 M201.688 205.301 C 204.470 205.514,209.176 205.514,211.593 205.302 C 212.858 205.191,211.145 205.135,206.528 205.136 C 201.804 205.137,200.241 205.190,201.688 205.301 M243.293 205.352 C 245.499 205.491,247.771 205.491,249.595 205.352 C 252.248 205.151,252.005 205.136,246.145 205.136 C 239.871 205.136,239.858 205.137,243.293 205.352 M302.532 205.297 C 304.729 205.504,311.657 205.504,313.675 205.297 C 314.599 205.202,312.273 205.136,308.047 205.137 C 303.782 205.137,301.533 205.202,302.532 205.297 M160.893 205.903 C 161.298 205.953,161.906 205.952,162.244 205.901 C 162.582 205.849,162.251 205.808,161.508 205.810 C 160.765 205.811,160.489 205.853,160.893 205.903 M165.391 205.903 C 165.793 205.953,166.452 205.953,166.854 205.903 C 167.257 205.853,166.927 205.812,166.123 205.812 C 165.318 205.812,164.989 205.853,165.391 205.903 " stroke="none" fill="#9eabb6" fill-rule="evenodd"></path></g></svg>